<svg width="158" height="140" viewBox="0 0 158 140" fill="none" xmlns="http://www.w3.org/2000/svg">
<path d="M60.1818 135C65.9586 135 71.4545 130.632 71.4545 124.286C71.4545 117.94 65.9586 113.571 60.1818 113.571C54.405 113.571 48.9091 117.94 48.9091 124.286C48.9091 130.632 54.405 135 60.1818 135Z" stroke="#C7C7C7" stroke-width="10" stroke-linecap="round" stroke-linejoin="round"/>
<path d="M129.182 135C134.959 135 140.455 130.632 140.455 124.286C140.455 117.94 134.959 113.571 129.182 113.571C123.405 113.571 117.909 117.94 117.909 124.286C117.909 130.632 123.405 135 129.182 135Z" stroke="#C7C7C7" stroke-width="10" stroke-linecap="round" stroke-linejoin="round"/>
<mask id="path-3-outside-1_411_21" maskUnits="userSpaceOnUse" x="0" y="0" width="158" height="106" fill="black">
<rect fill="white" width="158" height="106"/>
<path d="M10 10C19.7986 10 35.0909 10 35.0909 10L51.9018 86.5143C52.4754 89.1451 54.0465 91.5084 56.3401 93.1903C58.6336 94.8722 61.5035 95.7657 64.4473 95.7143H125.418C128.362 95.7657 131.232 94.8722 133.525 93.1903C135.819 91.5084 137.39 89.1451 137.964 86.5143L148 38.5714C148 38.5714 83.0077 38.5714 41.3636 38.5714"/>
</mask>
<path d="M10 0C4.47715 0 0 4.47715 0 10C0 15.5228 4.47715 20 10 20V0ZM35.0909 10L44.8579 7.85409C43.8502 3.26753 39.7869 0 35.0909 0V10ZM51.9018 86.5143L61.6723 84.384C61.6711 84.3788 61.67 84.3736 61.6689 84.3684L51.9018 86.5143ZM64.4473 95.7143V85.7143C64.3891 85.7143 64.3309 85.7148 64.2727 85.7158L64.4473 95.7143ZM125.418 95.7143L125.593 85.7158C125.535 85.7148 125.476 85.7143 125.418 85.7143L125.418 95.7143ZM137.964 86.5143L147.734 88.6446C147.74 88.6175 147.746 88.5904 147.751 88.5633L137.964 86.5143ZM148 38.5714L157.788 40.6204C158.405 37.6727 157.661 34.6038 155.762 32.2663C153.863 29.9287 151.012 28.5714 148 28.5714V38.5714ZM41.3636 28.5714C35.8408 28.5714 31.3636 33.0486 31.3636 38.5714C31.3636 44.0943 35.8408 48.5714 41.3636 48.5714V28.5714ZM10 20C10.0191 20 10.0383 20 10.0575 20C10.0767 20 10.0959 20 10.1151 20C10.1343 20 10.1535 20 10.1728 20C10.1921 20 10.2113 20 10.2307 20C10.25 20 10.2693 20 10.2886 20C10.308 20 10.3273 20 10.3467 20C10.3661 20 10.3855 20 10.4049 20C10.4243 20 10.4438 20 10.4633 20C10.4827 20 10.5022 20 10.5217 20C10.5412 20 10.5607 20 10.5803 20C10.5998 20 10.6194 20 10.639 20C10.6585 20 10.6781 20 10.6978 20C10.7174 20 10.737 20 10.7567 20C10.7763 20 10.796 20 10.8157 20C10.8354 20 10.8551 20 10.8748 20C10.8946 20 10.9143 20 10.9341 20C10.9538 20 10.9736 20 10.9934 20C11.0132 20 11.0331 20 11.0529 20C11.0728 20 11.0926 20 11.1125 20C11.1324 20 11.1523 20 11.1722 20C11.1921 20 11.212 20 11.232 20C11.2519 20 11.2719 20 11.2919 20C11.3119 20 11.3319 20 11.3519 20C11.3719 20 11.3919 20 11.412 20C11.4321 20 11.4521 20 11.4722 20C11.4923 20 11.5124 20 11.5325 20C11.5527 20 11.5728 20 11.593 20C11.6131 20 11.6333 20 11.6535 20C11.6737 20 11.6939 20 11.7141 20C11.7343 20 11.7546 20 11.7748 20C11.7951 20 11.8153 20 11.8356 20C11.8559 20 11.8762 20 11.8965 20C11.9169 20 11.9372 20 11.9576 20C11.9779 20 11.9983 20 12.0187 20C12.039 20 12.0594 20 12.0799 20C12.1003 20 12.1207 20 12.1411 20C12.1616 20 12.1821 20 12.2025 20C12.223 20 12.2435 20 12.264 20C12.2845 20 12.305 20 12.3256 20C12.3461 20 12.3667 20 12.3872 20C12.4078 20 12.4284 20 12.449 20C12.4696 20 12.4902 20 12.5108 20C12.5314 20 12.5521 20 12.5727 20C12.5934 20 12.614 20 12.6347 20C12.6554 20 12.6761 20 12.6968 20C12.7175 20 12.7383 20 12.759 20C12.7797 20 12.8005 20 12.8212 20C12.842 20 12.8628 20 12.8836 20C12.9044 20 12.9252 20 12.946 20C12.9668 20 12.9877 20 13.0085 20C13.0293 20 13.0502 20 13.0711 20C13.092 20 13.1128 20 13.1337 20C13.1546 20 13.1755 20 13.1965 20C13.2174 20 13.2383 20 13.2593 20C13.2802 20 13.3012 20 13.3222 20C13.3431 20 13.3641 20 13.3851 20C13.4061 20 13.4271 20 13.4482 20C13.4692 20 13.4902 20 13.5113 20C13.5323 20 13.5534 20 13.5745 20C13.5955 20 13.6166 20 13.6377 20C13.6588 20 13.6799 20 13.701 20C13.7221 20 13.7433 20 13.7644 20C13.7856 20 13.8067 20 13.8279 20C13.849 20 13.8702 20 13.8914 20C13.9126 20 13.9338 20 13.955 20C13.9762 20 13.9974 20 14.0186 20C14.0399 20 14.0611 20 14.0824 20C14.1036 20 14.1249 20 14.1461 20C14.1674 20 14.1887 20 14.21 20C14.2313 20 14.2526 20 14.2739 20C14.2952 20 14.3165 20 14.3379 20C14.3592 20 14.3806 20 14.4019 20C14.4233 20 14.4446 20 14.466 20C14.4874 20 14.5087 20 14.5301 20C14.5515 20 14.5729 20 14.5943 20C14.6157 20 14.6372 20 14.6586 20C14.68 20 14.7015 20 14.7229 20C14.7444 20 14.7658 20 14.7873 20C14.8087 20 14.8302 20 14.8517 20C14.8732 20 14.8947 20 14.9162 20C14.9377 20 14.9592 20 14.9807 20C15.0022 20 15.0237 20 15.0453 20C15.0668 20 15.0884 20 15.1099 20C15.1315 20 15.153 20 15.1746 20C15.1961 20 15.2177 20 15.2393 20C15.2609 20 15.2825 20 15.3041 20C15.3257 20 15.3473 20 15.3689 20C15.3905 20 15.4121 20 15.4337 20C15.4554 20 15.477 20 15.4986 20C15.5203 20 15.5419 20 15.5636 20C15.5852 20 15.6069 20 15.6286 20C15.6502 20 15.6719 20 15.6936 20C15.7153 20 15.737 20 15.7587 20C15.7804 20 15.8021 20 15.8238 20C15.8455 20 15.8672 20 15.8889 20C15.9107 20 15.9324 20 15.9541 20C15.9758 20 15.9976 20 16.0193 20C16.0411 20 16.0628 20 16.0846 20C16.1063 20 16.1281 20 16.1499 20C16.1717 20 16.1934 20 16.2152 20C16.237 20 16.2588 20 16.2806 20C16.3024 20 16.3242 20 16.346 20C16.3678 20 16.3896 20 16.4114 20C16.4332 20 16.455 20 16.4768 20C16.4986 20 16.5205 20 16.5423 20C16.5641 20 16.586 20 16.6078 20C16.6297 20 16.6515 20 16.6734 20C16.6952 20 16.7171 20 16.7389 20C16.7608 20 16.7826 20 16.8045 20C16.8264 20 16.8482 20 16.8701 20C16.892 20 16.9139 20 16.9357 20C16.9576 20 16.9795 20 17.0014 20C17.0233 20 17.0452 20 17.0671 20C17.089 20 17.1109 20 17.1328 20C17.1547 20 17.1766 20 17.1985 20C17.2204 20 17.2423 20 17.2642 20C17.2862 20 17.3081 20 17.33 20C17.3519 20 17.3738 20 17.3958 20C17.4177 20 17.4396 20 17.4616 20C17.4835 20 17.5054 20 17.5274 20C17.5493 20 17.5712 20 17.5932 20C17.6151 20 17.6371 20 17.659 20C17.681 20 17.7029 20 17.7249 20C17.7468 20 17.7688 20 17.7907 20C17.8127 20 17.8346 20 17.8566 20C17.8785 20 17.9005 20 17.9225 20C17.9444 20 17.9664 20 17.9883 20C18.0103 20 18.0323 20 18.0542 20C18.0762 20 18.0982 20 18.1201 20C18.1421 20 18.1641 20 18.186 20C18.208 20 18.23 20 18.252 20C18.2739 20 18.2959 20 18.3179 20C18.3398 20 18.3618 20 18.3838 20C18.4058 20 18.4277 20 18.4497 20C18.4717 20 18.4937 20 18.5156 20C18.5376 20 18.5596 20 18.5816 20C18.6035 20 18.6255 20 18.6475 20C18.6694 20 18.6914 20 18.7134 20C18.7354 20 18.7573 20 18.7793 20C18.8013 20 18.8233 20 18.8452 20C18.8672 20 18.8892 20 18.9111 20C18.9331 20 18.9551 20 18.977 20C18.999 20 19.021 20 19.0429 20C19.0649 20 19.0869 20 19.1088 20C19.1308 20 19.1527 20 19.1747 20C19.1967 20 19.2186 20 19.2406 20C19.2625 20 19.2845 20 19.3064 20C19.3284 20 19.3503 20 19.3723 20C19.3942 20 19.4162 20 19.4381 20C19.4601 20 19.482 20 19.504 20C19.5259 20 19.5478 20 19.5698 20C19.5917 20 19.6136 20 19.6356 20C19.6575 20 19.6794 20 19.7014 20C19.7233 20 19.7452 20 19.7671 20C19.789 20 19.811 20 19.8329 20C19.8548 20 19.8767 20 19.8986 20C19.9205 20 19.9424 20 19.9643 20C19.9862 20 20.0081 20 20.03 20C20.0519 20 20.0738 20 20.0957 20C20.1176 20 20.1395 20 20.1613 20C20.1832 20 20.2051 20 20.227 20C20.2488 20 20.2707 20 20.2926 20C20.3144 20 20.3363 20 20.3581 20C20.38 20 20.4019 20 20.4237 20C20.4455 20 20.4674 20 20.4892 20C20.5111 20 20.5329 20 20.5547 20C20.5765 20 20.5984 20 20.6202 20C20.642 20 20.6638 20 20.6856 20C20.7074 20 20.7292 20 20.751 20C20.7728 20 20.7946 20 20.8164 20C20.8382 20 20.86 20 20.8818 20C20.9035 20 20.9253 20 20.9471 20C20.9688 20 20.9906 20 21.0124 20C21.0341 20 21.0559 20 21.0776 20C21.0993 20 21.1211 20 21.1428 20C21.1645 20 21.1863 20 21.208 20C21.2297 20 21.2514 20 21.2731 20C21.2948 20 21.3165 20 21.3382 20C21.3599 20 21.3816 20 21.4033 20C21.4249 20 21.4466 20 21.4683 20C21.4899 20 21.5116 20 21.5333 20C21.5549 20 21.5765 20 21.5982 20C21.6198 20 21.6414 20 21.6631 20C21.6847 20 21.7063 20 21.7279 20C21.7495 20 21.7711 20 21.7927 20C21.8143 20 21.8359 20 21.8575 20C21.879 20 21.9006 20 21.9222 20C21.9437 20 21.9653 20 21.9868 20C22.0084 20 22.0299 20 22.0514 20C22.073 20 22.0945 20 22.116 20C22.1375 20 22.159 20 22.1805 20C22.202 20 22.2235 20 22.2449 20C22.2664 20 22.2879 20 22.3094 20C22.3308 20 22.3523 20 22.3737 20C22.3951 20 22.4166 20 22.438 20C22.4594 20 22.4808 20 22.5022 20C22.5236 20 22.545 20 22.5664 20C22.5878 20 22.6092 20 22.6305 20C22.6519 20 22.6733 20 22.6946 20C22.716 20 22.7373 20 22.7586 20C22.7799 20 22.8013 20 22.8226 20C22.8439 20 22.8652 20 22.8864 20C22.9077 20 22.929 20 22.9503 20C22.9715 20 22.9928 20 23.014 20C23.0353 20 23.0565 20 23.0777 20C23.099 20 23.1202 20 23.1414 20C23.1626 20 23.1838 20 23.2049 20C23.2261 20 23.2473 20 23.2684 20C23.2896 20 23.3107 20 23.3319 20C23.353 20 23.3741 20 23.3952 20C23.4163 20 23.4374 20 23.4585 20C23.4796 20 23.5007 20 23.5218 20C23.5428 20 23.5639 20 23.5849 20C23.6059 20 23.627 20 23.648 20C23.669 20 23.69 20 23.711 20C23.732 20 23.753 20 23.7739 20C23.7949 20 23.8158 20 23.8368 20C23.8577 20 23.8787 20 23.8996 20C23.9205 20 23.9414 20 23.9623 20C23.9832 20 24.004 20 24.0249 20C24.0458 20 24.0666 20 24.0875 20C24.1083 20 24.1291 20 24.1499 20C24.1707 20 24.1915 20 24.2123 20C24.2331 20 24.2539 20 24.2746 20C24.2954 20 24.3161 20 24.3369 20C24.3576 20 24.3783 20 24.399 20C24.4197 20 24.4404 20 24.4611 20C24.4817 20 24.5024 20 24.523 20C24.5437 20 24.5643 20 24.5849 20C24.6055 20 24.6261 20 24.6467 20C24.6673 20 24.6879 20 24.7084 20C24.729 20 24.7495 20 24.7701 20C24.7906 20 24.8111 20 24.8316 20C24.8521 20 24.8726 20 24.893 20C24.9135 20 24.9339 20 24.9544 20C24.9748 20 24.9952 20 25.0156 20C25.036 20 25.0564 20 25.0768 20C25.0972 20 25.1175 20 25.1379 20C25.1582 20 25.1785 20 25.1989 20C25.2192 20 25.2395 20 25.2597 20C25.28 20 25.3003 20 25.3205 20C25.3408 20 25.361 20 25.3812 20C25.4014 20 25.4216 20 25.4418 20C25.462 20 25.4821 20 25.5023 20C25.5224 20 25.5425 20 25.5626 20C25.5828 20 25.6029 20 25.6229 20C25.643 20 25.6631 20 25.6831 20C25.7031 20 25.7232 20 25.7432 20C25.7632 20 25.7832 20 25.8032 20C25.8231 20 25.8431 20 25.863 20C25.883 20 25.9029 20 25.9228 20C25.9427 20 25.9626 20 25.9824 20C26.0023 20 26.0221 20 26.042 20C26.0618 20 26.0816 20 26.1014 20C26.1212 20 26.141 20 26.1607 20C26.1805 20 26.2002 20 26.2199 20C26.2396 20 26.2593 20 26.279 20C26.2987 20 26.3184 20 26.338 20C26.3577 20 26.3773 20 26.3969 20C26.4165 20 26.4361 20 26.4556 20C26.4752 20 26.4948 20 26.5143 20C26.5338 20 26.5533 20 26.5728 20C26.5923 20 26.6118 20 26.6312 20C26.6507 20 26.6701 20 26.6895 20C26.7089 20 26.7283 20 26.7477 20C26.767 20 26.7864 20 26.8057 20C26.825 20 26.8444 20 26.8636 20C26.8829 20 26.9022 20 26.9215 20C26.9407 20 26.9599 20 26.9791 20C26.9983 20 27.0175 20 27.0367 20C27.0559 20 27.075 20 27.0941 20C27.1132 20 27.1323 20 27.1514 20C27.1705 20 27.1896 20 27.2086 20C27.2276 20 27.2467 20 27.2657 20C27.2846 20 27.3036 20 27.3226 20C27.3415 20 27.3605 20 27.3794 20C27.3983 20 27.4172 20 27.436 20C27.4549 20 27.4737 20 27.4926 20C27.5114 20 27.5302 20 27.549 20C27.5677 20 27.5865 20 27.6052 20C27.6239 20 27.6427 20 27.6613 20C27.68 20 27.6987 20 27.7173 20C27.736 20 27.7546 20 27.7732 20C27.7918 20 27.8104 20 27.8289 20C27.8475 20 27.866 20 27.8845 20C27.903 20 27.9215 20 27.9399 20C27.9584 20 27.9768 20 27.9952 20C28.0137 20 28.032 20 28.0504 20C28.0688 20 28.0871 20 28.1054 20C28.1237 20 28.142 20 28.1603 20C28.1786 20 28.1968 20 28.215 20C28.2333 20 28.2515 20 28.2696 20C28.2878 20 28.3059 20 28.3241 20C28.3422 20 28.3603 20 28.3784 20C28.3964 20 28.4145 20 28.4325 20C28.4505 20 28.4685 20 28.4865 20C28.5045 20 28.5224 20 28.5404 20C28.5583 20 28.5762 20 28.5941 20C28.6119 20 28.6298 20 28.6476 20C28.6654 20 28.6832 20 28.701 20C28.7188 20 28.7365 20 28.7543 20C28.772 20 28.7897 20 28.8074 20C28.825 20 28.8427 20 28.8603 20C28.8779 20 28.8955 20 28.9131 20C28.9306 20 28.9482 20 28.9657 20C28.9832 20 29.0007 20 29.0182 20C29.0356 20 29.0531 20 29.0705 20C29.0879 20 29.1053 20 29.1226 20C29.14 20 29.1573 20 29.1746 20C29.1919 20 29.2092 20 29.2264 20C29.2437 20 29.2609 20 29.2781 20C29.2953 20 29.3124 20 29.3296 20C29.3467 20 29.3638 20 29.3809 20C29.398 20 29.4151 20 29.4321 20C29.4491 20 29.4661 20 29.4831 20C29.5001 20 29.517 20 29.5339 20C29.5509 20 29.5677 20 29.5846 20C29.6015 20 29.6183 20 29.6351 20C29.6519 20 29.6687 20 29.6854 20C29.7022 20 29.7189 20 29.7356 20C29.7523 20 29.769 20 29.7856 20C29.8022 20 29.8188 20 29.8354 20C29.852 20 29.8685 20 29.8851 20C29.9016 20 29.9181 20 29.9345 20C29.951 20 29.9674 20 29.9838 20C30.0002 20 30.0166 20 30.0329 20C30.0493 20 30.0656 20 30.0819 20C30.0982 20 30.1144 20 30.1306 20C30.1469 20 30.1631 20 30.1792 20C30.1954 20 30.2115 20 30.2276 20C30.2437 20 30.2598 20 30.2758 20C30.2919 20 30.3079 20 30.3239 20C30.3399 20 30.3558 20 30.3717 20C30.3877 20 30.4036 20 30.4194 20C30.4353 20 30.4511 20 30.4669 20C30.4827 20 30.4985 20 30.5142 20C30.5299 20 30.5457 20 30.5613 20C30.577 20 30.5926 20 30.6083 20C30.6239 20 30.6394 20 30.655 20C30.6705 20 30.6861 20 30.7016 20C30.717 20 30.7325 20 30.7479 20C30.7633 20 30.7787 20 30.7941 20C30.8094 20 30.8248 20 30.8401 20C30.8554 20 30.8706 20 30.8858 20C30.9011 20 30.9163 20 30.9314 20C30.9466 20 30.9617 20 30.9768 20C30.9919 20 31.007 20 31.022 20C31.0371 20 31.0521 20 31.067 20C31.082 20 31.0969 20 31.1119 20C31.1268 20 31.1416 20 31.1565 20C31.1713 20 31.1861 20 31.2009 20C31.2156 20 31.2304 20 31.2451 20C31.2598 20 31.2745 20 31.2891 20C31.3037 20 31.3183 20 31.3329 20C31.3475 20 31.362 20 31.3765 20C31.391 20 31.4055 20 31.4199 20C31.4343 20 31.4487 20 31.4631 20C31.4774 20 31.4918 20 31.5061 20C31.5204 20 31.5346 20 31.5489 20C31.5631 20 31.5773 20 31.5914 20C31.6056 20 31.6197 20 31.6338 20C31.6479 20 31.6619 20 31.6759 20C31.69 20 31.7039 20 31.7179 20C31.7318 20 31.7457 20 31.7596 20C31.7735 20 31.7873 20 31.8011 20C31.8149 20 31.8287 20 31.8424 20C31.8562 20 31.8699 20 31.8835 20C31.8972 20 31.9108 20 31.9244 20C31.938 20 31.9515 20 31.9651 20C31.9786 20 31.9921 20 32.0055 20C32.019 20 32.0324 20 32.0457 20C32.0591 20 32.0724 20 32.0857 20C32.099 20 32.1123 20 32.1255 20C32.1387 20 32.1519 20 32.1651 20C32.1782 20 32.1914 20 32.2044 20C32.2175 20 32.2305 20 32.2435 20C32.2566 20 32.2695 20 32.2824 20C32.2954 20 32.3083 20 32.3211 20C32.334 20 32.3468 20 32.3596 20C32.3723 20 32.3851 20 32.3978 20C32.4105 20 32.4232 20 32.4358 20C32.4484 20 32.461 20 32.4735 20C32.4861 20 32.4986 20 32.5111 20C32.5235 20 32.536 20 32.5484 20C32.5608 20 32.5731 20 32.5855 20C32.5978 20 32.6101 20 32.6223 20C32.6345 20 32.6467 20 32.6589 20C32.6711 20 32.6832 20 32.6953 20C32.7074 20 32.7194 20 32.7314 20C32.7434 20 32.7554 20 32.7673 20C32.7793 20 32.7911 20 32.803 20C32.8148 20 32.8267 20 32.8384 20C32.8502 20 32.8619 20 32.8736 20C32.8853 20 32.897 20 32.9086 20C32.9202 20 32.9318 20 32.9433 20C32.9548 20 32.9663 20 32.9778 20C32.9892 20 33.0006 20 33.012 20C33.0233 20 33.0347 20 33.046 20C33.0573 20 33.0685 20 33.0797 20C33.0909 20 33.1021 20 33.1132 20C33.1243 20 33.1354 20 33.1465 20C33.1575 20 33.1685 20 33.1795 20C33.1904 20 33.2013 20 33.2122 20C33.2231 20 33.2339 20 33.2447 20C33.2555 20 33.2663 20 33.277 20C33.2877 20 33.2984 20 33.309 20C33.3196 20 33.3302 20 33.3407 20C33.3513 20 33.3618 20 33.3722 20C33.3827 20 33.3931 20 33.4035 20C33.4139 20 33.4242 20 33.4345 20C33.4448 20 33.455 20 33.4652 20C33.4754 20 33.4856 20 33.4957 20C33.5058 20 33.5159 20 33.5259 20C33.536 20 33.546 20 33.5559 20C33.5659 20 33.5758 20 33.5856 20C33.5955 20 33.6053 20 33.6151 20C33.6248 20 33.6346 20 33.6443 20C33.6539 20 33.6636 20 33.6732 20C33.6828 20 33.6923 20 33.7018 20C33.7114 20 33.7208 20 33.7302 20C33.7397 20 33.749 20 33.7584 20C33.7677 20 33.777 20 33.7863 20C33.7955 20 33.8047 20 33.8139 20C33.823 20 33.8321 20 33.8412 20C33.8503 20 33.8593 20 33.8683 20C33.8772 20 33.8862 20 33.8951 20C33.904 20 33.9128 20 33.9216 20C33.9304 20 33.9391 20 33.9479 20C33.9566 20 33.9652 20 33.9738 20C33.9825 20 33.991 20 33.9996 20C34.0081 20 34.0166 20 34.025 20C34.0334 20 34.0418 20 34.0502 20C34.0585 20 34.0668 20 34.075 20C34.0833 20 34.0915 20 34.0997 20C34.1078 20 34.1159 20 34.124 20C34.1321 20 34.1401 20 34.1481 20C34.156 20 34.164 20 34.1718 20C34.1797 20 34.1875 20 34.1953 20C34.2031 20 34.2109 20 34.2185 20C34.2262 20 34.2339 20 34.2415 20C34.2491 20 34.2566 20 34.2641 20C34.2716 20 34.2791 20 34.2865 20C34.2939 20 34.3013 20 34.3086 20C34.3159 20 34.3232 20 34.3304 20C34.3376 20 34.3448 20 34.3519 20C34.359 20 34.3661 20 34.3731 20C34.3801 20 34.3871 20 34.394 20C34.401 20 34.4078 20 34.4147 20C34.4215 20 34.4283 20 34.435 20C34.4418 20 34.4485 20 34.4551 20C34.4617 20 34.4683 20 34.4749 20C34.4814 20 34.4879 20 34.4943 20C34.5008 20 34.5072 20 34.5135 20C34.5199 20 34.5262 20 34.5324 20C34.5386 20 34.5448 20 34.551 20C34.5571 20 34.5632 20 34.5693 20C34.5753 20 34.5813 20 34.5873 20C34.5932 20 34.5991 20 34.605 20C34.6108 20 34.6166 20 34.6224 20C34.6281 20 34.6338 20 34.6395 20C34.6451 20 34.6507 20 34.6563 20C34.6618 20 34.6673 20 34.6727 20C34.6782 20 34.6836 20 34.6889 20C34.6943 20 34.6996 20 34.7048 20C34.7101 20 34.7153 20 34.7204 20C34.7255 20 34.7306 20 34.7357 20C34.7407 20 34.7457 20 34.7506 20C34.7556 20 34.7605 20 34.7653 20C34.7701 20 34.7749 20 34.7796 20C34.7844 20 34.789 20 34.7937 20C34.7983 20 34.8029 20 34.8074 20C34.8119 20 34.8164 20 34.8208 20C34.8252 20 34.8296 20 34.8339 20C34.8382 20 34.8425 20 34.8467 20C34.8509 20 34.8551 20 34.8592 20C34.8633 20 34.8673 20 34.8713 20C34.8753 20 34.8793 20 34.8832 20C34.8871 20 34.8909 20 34.8947 20C34.8985 20 34.9022 20 34.9059 20C34.9096 20 34.9132 20 34.9168 20C34.9203 20 34.9239 20 34.9273 20C34.9308 20 34.9342 20 34.9376 20C34.9409 20 34.9442 20 34.9475 20C34.9508 20 34.954 20 34.9571 20C34.9602 20 34.9633 20 34.9664 20C34.9694 20 34.9724 20 34.9753 20C34.9783 20 34.9811 20 34.9839 20C34.9868 20 34.9895 20 34.9922 20C34.995 20 34.9976 20 35.0002 20C35.0028 20 35.0054 20 35.0079 20C35.0103 20 35.0128 20 35.0152 20C35.0175 20 35.0199 20 35.0221 20C35.0244 20 35.0266 20 35.0288 20C35.031 20 35.0331 20 35.0351 20C35.0372 20 35.0392 20 35.0411 20C35.043 20 35.0449 20 35.0467 20C35.0486 20 35.0503 20 35.0521 20C35.0538 20 35.0554 20 35.057 20C35.0586 20 35.0602 20 35.0617 20C35.0632 20 35.0646 20 35.066 20C35.0674 20 35.0687 20 35.0699 20C35.0712 20 35.0724 20 35.0736 20C35.0747 20 35.0758 20 35.0768 20C35.0779 20 35.0789 20 35.0798 20C35.0807 20 35.0816 20 35.0824 20C35.0832 20 35.0839 20 35.0846 20C35.0853 20 35.086 20 35.0866 20C35.0871 20 35.0877 20 35.0881 20C35.0886 20 35.089 20 35.0893 20C35.0897 20 35.09 20 35.0902 20C35.0904 20 35.0906 20 35.0907 20C35.0908 20 35.0909 20 35.0909 10C35.0909 0 35.0908 0 35.0907 0C35.0906 0 35.0904 0 35.0902 0C35.09 0 35.0897 0 35.0893 0C35.089 0 35.0886 0 35.0881 0C35.0877 0 35.0871 0 35.0866 0C35.086 0 35.0853 0 35.0846 0C35.0839 0 35.0832 0 35.0824 0C35.0816 0 35.0807 0 35.0798 0C35.0789 0 35.0779 0 35.0768 0C35.0758 0 35.0747 0 35.0736 0C35.0724 0 35.0712 0 35.0699 0C35.0687 0 35.0674 0 35.066 0C35.0646 0 35.0632 0 35.0617 0C35.0602 0 35.0586 0 35.057 0C35.0554 0 35.0538 0 35.0521 0C35.0503 0 35.0486 0 35.0467 0C35.0449 0 35.043 0 35.0411 0C35.0392 0 35.0372 0 35.0351 0C35.0331 0 35.031 0 35.0288 0C35.0266 0 35.0244 0 35.0221 0C35.0199 0 35.0175 0 35.0152 0C35.0128 0 35.0103 0 35.0079 0C35.0054 0 35.0028 0 35.0002 0C34.9976 0 34.995 0 34.9922 0C34.9895 0 34.9868 0 34.9839 0C34.9811 0 34.9783 0 34.9753 0C34.9724 0 34.9694 0 34.9664 0C34.9633 0 34.9602 0 34.9571 0C34.954 0 34.9508 0 34.9475 0C34.9442 0 34.9409 0 34.9376 0C34.9342 0 34.9308 0 34.9273 0C34.9239 0 34.9203 0 34.9168 0C34.9132 0 34.9096 0 34.9059 0C34.9022 0 34.8985 0 34.8947 0C34.8909 0 34.8871 0 34.8832 0C34.8793 0 34.8753 0 34.8713 0C34.8673 0 34.8633 0 34.8592 0C34.8551 0 34.8509 0 34.8467 0C34.8425 0 34.8382 0 34.8339 0C34.8296 0 34.8252 0 34.8208 0C34.8164 0 34.8119 0 34.8074 0C34.8029 0 34.7983 0 34.7937 0C34.789 0 34.7844 0 34.7796 0C34.7749 0 34.7701 0 34.7653 0C34.7605 0 34.7556 0 34.7506 0C34.7457 0 34.7407 0 34.7357 0C34.7306 0 34.7255 0 34.7204 0C34.7153 0 34.7101 0 34.7048 0C34.6996 0 34.6943 0 34.6889 0C34.6836 0 34.6782 0 34.6727 0C34.6673 0 34.6618 0 34.6563 0C34.6507 0 34.6451 0 34.6395 0C34.6338 0 34.6281 0 34.6224 0C34.6166 0 34.6108 0 34.605 0C34.5991 0 34.5932 0 34.5873 0C34.5813 0 34.5753 0 34.5693 0C34.5632 0 34.5571 0 34.551 0C34.5448 0 34.5386 0 34.5324 0C34.5262 0 34.5199 0 34.5135 0C34.5072 0 34.5008 0 34.4943 0C34.4879 0 34.4814 0 34.4749 0C34.4683 0 34.4617 0 34.4551 0C34.4485 0 34.4418 0 34.435 0C34.4283 0 34.4215 0 34.4147 0C34.4078 0 34.401 0 34.394 0C34.3871 0 34.3801 0 34.3731 0C34.3661 0 34.359 0 34.3519 0C34.3448 0 34.3376 0 34.3304 0C34.3232 0 34.3159 0 34.3086 0C34.3013 0 34.2939 0 34.2865 0C34.2791 0 34.2716 0 34.2641 0C34.2566 0 34.2491 0 34.2415 0C34.2339 0 34.2262 0 34.2185 0C34.2109 0 34.2031 0 34.1953 0C34.1875 0 34.1797 0 34.1718 0C34.164 0 34.156 0 34.1481 0C34.1401 0 34.1321 0 34.124 0C34.1159 0 34.1078 0 34.0997 0C34.0915 0 34.0833 0 34.075 0C34.0668 0 34.0585 0 34.0502 0C34.0418 0 34.0334 0 34.025 0C34.0166 0 34.0081 0 33.9996 0C33.991 0 33.9825 0 33.9738 0C33.9652 0 33.9566 0 33.9479 0C33.9391 0 33.9304 0 33.9216 0C33.9128 0 33.904 0 33.8951 0C33.8862 0 33.8772 0 33.8683 0C33.8593 0 33.8503 0 33.8412 0C33.8321 0 33.823 0 33.8139 0C33.8047 0 33.7955 0 33.7863 0C33.777 0 33.7677 0 33.7584 0C33.749 0 33.7397 0 33.7302 0C33.7208 0 33.7114 0 33.7018 0C33.6923 0 33.6828 0 33.6732 0C33.6636 0 33.6539 0 33.6443 0C33.6346 0 33.6248 0 33.6151 0C33.6053 0 33.5955 0 33.5856 0C33.5758 0 33.5659 0 33.5559 0C33.546 0 33.536 0 33.5259 0C33.5159 0 33.5058 0 33.4957 0C33.4856 0 33.4754 0 33.4652 0C33.455 0 33.4448 0 33.4345 0C33.4242 0 33.4139 0 33.4035 0C33.3931 0 33.3827 0 33.3722 0C33.3618 0 33.3513 0 33.3407 0C33.3302 0 33.3196 0 33.309 0C33.2984 0 33.2877 0 33.277 0C33.2663 0 33.2555 0 33.2447 0C33.2339 0 33.2231 0 33.2122 0C33.2013 0 33.1904 0 33.1795 0C33.1685 0 33.1575 0 33.1465 0C33.1354 0 33.1243 0 33.1132 0C33.1021 0 33.0909 0 33.0797 0C33.0685 0 33.0573 0 33.046 0C33.0347 0 33.0233 0 33.012 0C33.0006 0 32.9892 0 32.9778 0C32.9663 0 32.9548 0 32.9433 0C32.9318 0 32.9202 0 32.9086 0C32.897 0 32.8853 0 32.8736 0C32.8619 0 32.8502 0 32.8384 0C32.8267 0 32.8148 0 32.803 0C32.7911 0 32.7793 0 32.7673 0C32.7554 0 32.7434 0 32.7314 0C32.7194 0 32.7074 0 32.6953 0C32.6832 0 32.6711 0 32.6589 0C32.6467 0 32.6345 0 32.6223 0C32.6101 0 32.5978 0 32.5855 0C32.5731 0 32.5608 0 32.5484 0C32.536 0 32.5235 0 32.5111 0C32.4986 0 32.4861 0 32.4735 0C32.461 0 32.4484 0 32.4358 0C32.4232 0 32.4105 0 32.3978 0C32.3851 0 32.3723 0 32.3596 0C32.3468 0 32.334 0 32.3211 0C32.3083 0 32.2954 0 32.2824 0C32.2695 0 32.2566 0 32.2435 0C32.2305 0 32.2175 0 32.2044 0C32.1914 0 32.1782 0 32.1651 0C32.1519 0 32.1387 0 32.1255 0C32.1123 0 32.099 0 32.0857 0C32.0724 0 32.0591 0 32.0457 0C32.0324 0 32.019 0 32.0055 0C31.9921 0 31.9786 0 31.9651 0C31.9515 0 31.938 0 31.9244 0C31.9108 0 31.8972 0 31.8835 0C31.8699 0 31.8562 0 31.8424 0C31.8287 0 31.8149 0 31.8011 0C31.7873 0 31.7735 0 31.7596 0C31.7457 0 31.7318 0 31.7179 0C31.7039 0 31.69 0 31.6759 0C31.6619 0 31.6479 0 31.6338 0C31.6197 0 31.6056 0 31.5914 0C31.5773 0 31.5631 0 31.5489 0C31.5346 0 31.5204 0 31.5061 0C31.4918 0 31.4774 0 31.4631 0C31.4487 0 31.4343 0 31.4199 0C31.4055 0 31.391 0 31.3765 0C31.362 0 31.3475 0 31.3329 0C31.3183 0 31.3037 0 31.2891 0C31.2745 0 31.2598 0 31.2451 0C31.2304 0 31.2156 0 31.2009 0C31.1861 0 31.1713 0 31.1565 0C31.1416 0 31.1268 0 31.1119 0C31.0969 0 31.082 0 31.067 0C31.0521 0 31.0371 0 31.022 0C31.007 0 30.9919 0 30.9768 0C30.9617 0 30.9466 0 30.9314 0C30.9163 0 30.9011 0 30.8858 0C30.8706 0 30.8554 0 30.8401 0C30.8248 0 30.8094 0 30.7941 0C30.7787 0 30.7633 0 30.7479 0C30.7325 0 30.717 0 30.7016 0C30.6861 0 30.6705 0 30.655 0C30.6394 0 30.6239 0 30.6083 0C30.5926 0 30.577 0 30.5613 0C30.5457 0 30.5299 0 30.5142 0C30.4985 0 30.4827 0 30.4669 0C30.4511 0 30.4353 0 30.4194 0C30.4036 0 30.3877 0 30.3717 0C30.3558 0 30.3399 0 30.3239 0C30.3079 0 30.2919 0 30.2758 0C30.2598 0 30.2437 0 30.2276 0C30.2115 0 30.1954 0 30.1792 0C30.1631 0 30.1469 0 30.1306 0C30.1144 0 30.0982 0 30.0819 0C30.0656 0 30.0493 0 30.0329 0C30.0166 0 30.0002 0 29.9838 0C29.9674 0 29.951 0 29.9345 0C29.9181 0 29.9016 0 29.8851 0C29.8685 0 29.852 0 29.8354 0C29.8188 0 29.8022 0 29.7856 0C29.769 0 29.7523 0 29.7356 0C29.7189 0 29.7022 0 29.6854 0C29.6687 0 29.6519 0 29.6351 0C29.6183 0 29.6015 0 29.5846 0C29.5677 0 29.5509 0 29.5339 0C29.517 0 29.5001 0 29.4831 0C29.4661 0 29.4491 0 29.4321 0C29.4151 0 29.398 0 29.3809 0C29.3638 0 29.3467 0 29.3296 0C29.3124 0 29.2953 0 29.2781 0C29.2609 0 29.2437 0 29.2264 0C29.2092 0 29.1919 0 29.1746 0C29.1573 0 29.14 0 29.1226 0C29.1053 0 29.0879 0 29.0705 0C29.0531 0 29.0356 0 29.0182 0C29.0007 0 28.9832 0 28.9657 0C28.9482 0 28.9306 0 28.9131 0C28.8955 0 28.8779 0 28.8603 0C28.8427 0 28.825 0 28.8074 0C28.7897 0 28.772 0 28.7543 0C28.7365 0 28.7188 0 28.701 0C28.6832 0 28.6654 0 28.6476 0C28.6298 0 28.6119 0 28.5941 0C28.5762 0 28.5583 0 28.5404 0C28.5224 0 28.5045 0 28.4865 0C28.4685 0 28.4505 0 28.4325 0C28.4145 0 28.3964 0 28.3784 0C28.3603 0 28.3422 0 28.3241 0C28.3059 0 28.2878 0 28.2696 0C28.2515 0 28.2333 0 28.215 0C28.1968 0 28.1786 0 28.1603 0C28.142 0 28.1237 0 28.1054 0C28.0871 0 28.0688 0 28.0504 0C28.032 0 28.0137 0 27.9952 0C27.9768 0 27.9584 0 27.9399 0C27.9215 0 27.903 0 27.8845 0C27.866 0 27.8475 0 27.8289 0C27.8104 0 27.7918 0 27.7732 0C27.7546 0 27.736 0 27.7173 0C27.6987 0 27.68 0 27.6613 0C27.6427 0 27.6239 0 27.6052 0C27.5865 0 27.5677 0 27.549 0C27.5302 0 27.5114 0 27.4926 0C27.4737 0 27.4549 0 27.436 0C27.4172 0 27.3983 0 27.3794 0C27.3605 0 27.3415 0 27.3226 0C27.3036 0 27.2846 0 27.2657 0C27.2467 0 27.2276 0 27.2086 0C27.1896 0 27.1705 0 27.1514 0C27.1323 0 27.1132 0 27.0941 0C27.075 0 27.0559 0 27.0367 0C27.0175 0 26.9983 0 26.9791 0C26.9599 0 26.9407 0 26.9215 0C26.9022 0 26.8829 0 26.8636 0C26.8444 0 26.825 0 26.8057 0C26.7864 0 26.767 0 26.7477 0C26.7283 0 26.7089 0 26.6895 0C26.6701 0 26.6507 0 26.6312 0C26.6118 0 26.5923 0 26.5728 0C26.5533 0 26.5338 0 26.5143 0C26.4948 0 26.4752 0 26.4556 0C26.4361 0 26.4165 0 26.3969 0C26.3773 0 26.3577 0 26.338 0C26.3184 0 26.2987 0 26.279 0C26.2593 0 26.2396 0 26.2199 0C26.2002 0 26.1805 0 26.1607 0C26.141 0 26.1212 0 26.1014 0C26.0816 0 26.0618 0 26.042 0C26.0221 0 26.0023 0 25.9824 0C25.9626 0 25.9427 0 25.9228 0C25.9029 0 25.883 0 25.863 0C25.8431 0 25.8231 0 25.8032 0C25.7832 0 25.7632 0 25.7432 0C25.7232 0 25.7031 0 25.6831 0C25.6631 0 25.643 0 25.6229 0C25.6029 0 25.5828 0 25.5626 0C25.5425 0 25.5224 0 25.5023 0C25.4821 0 25.462 0 25.4418 0C25.4216 0 25.4014 0 25.3812 0C25.361 0 25.3408 0 25.3205 0C25.3003 0 25.28 0 25.2597 0C25.2395 0 25.2192 0 25.1989 0C25.1785 0 25.1582 0 25.1379 0C25.1175 0 25.0972 0 25.0768 0C25.0564 0 25.036 0 25.0156 0C24.9952 0 24.9748 0 24.9544 0C24.9339 0 24.9135 0 24.893 0C24.8726 0 24.8521 0 24.8316 0C24.8111 0 24.7906 0 24.7701 0C24.7495 0 24.729 0 24.7084 0C24.6879 0 24.6673 0 24.6467 0C24.6261 0 24.6055 0 24.5849 0C24.5643 0 24.5437 0 24.523 0C24.5024 0 24.4817 0 24.4611 0C24.4404 0 24.4197 0 24.399 0C24.3783 0 24.3576 0 24.3369 0C24.3161 0 24.2954 0 24.2746 0C24.2539 0 24.2331 0 24.2123 0C24.1915 0 24.1707 0 24.1499 0C24.1291 0 24.1083 0 24.0875 0C24.0666 0 24.0458 0 24.0249 0C24.004 0 23.9832 0 23.9623 0C23.9414 0 23.9205 0 23.8996 0C23.8787 0 23.8577 0 23.8368 0C23.8158 0 23.7949 0 23.7739 0C23.753 0 23.732 0 23.711 0C23.69 0 23.669 0 23.648 0C23.627 0 23.6059 0 23.5849 0C23.5639 0 23.5428 0 23.5218 0C23.5007 0 23.4796 0 23.4585 0C23.4374 0 23.4163 0 23.3952 0C23.3741 0 23.353 0 23.3319 0C23.3107 0 23.2896 0 23.2684 0C23.2473 0 23.2261 0 23.2049 0C23.1838 0 23.1626 0 23.1414 0C23.1202 0 23.099 0 23.0777 0C23.0565 0 23.0353 0 23.014 0C22.9928 0 22.9715 0 22.9503 0C22.929 0 22.9077 0 22.8864 0C22.8652 0 22.8439 0 22.8226 0C22.8013 0 22.7799 0 22.7586 0C22.7373 0 22.716 0 22.6946 0C22.6733 0 22.6519 0 22.6305 0C22.6092 0 22.5878 0 22.5664 0C22.545 0 22.5236 0 22.5022 0C22.4808 0 22.4594 0 22.438 0C22.4166 0 22.3951 0 22.3737 0C22.3523 0 22.3308 0 22.3094 0C22.2879 0 22.2664 0 22.2449 0C22.2235 0 22.202 0 22.1805 0C22.159 0 22.1375 0 22.116 0C22.0945 0 22.073 0 22.0514 0C22.0299 0 22.0084 0 21.9868 0C21.9653 0 21.9437 0 21.9222 0C21.9006 0 21.879 0 21.8575 0C21.8359 0 21.8143 0 21.7927 0C21.7711 0 21.7495 0 21.7279 0C21.7063 0 21.6847 0 21.6631 0C21.6414 0 21.6198 0 21.5982 0C21.5765 0 21.5549 0 21.5333 0C21.5116 0 21.4899 0 21.4683 0C21.4466 0 21.4249 0 21.4033 0C21.3816 0 21.3599 0 21.3382 0C21.3165 0 21.2948 0 21.2731 0C21.2514 0 21.2297 0 21.208 0C21.1863 0 21.1645 0 21.1428 0C21.1211 0 21.0993 0 21.0776 0C21.0559 0 21.0341 0 21.0124 0C20.9906 0 20.9688 0 20.9471 0C20.9253 0 20.9035 0 20.8818 0C20.86 0 20.8382 0 20.8164 0C20.7946 0 20.7728 0 20.751 0C20.7292 0 20.7074 0 20.6856 0C20.6638 0 20.642 0 20.6202 0C20.5984 0 20.5765 0 20.5547 0C20.5329 0 20.5111 0 20.4892 0C20.4674 0 20.4455 0 20.4237 0C20.4019 0 20.38 0 20.3581 0C20.3363 0 20.3144 0 20.2926 0C20.2707 0 20.2488 0 20.227 0C20.2051 0 20.1832 0 20.1613 0C20.1395 0 20.1176 0 20.0957 0C20.0738 0 20.0519 0 20.03 0C20.0081 0 19.9862 0 19.9643 0C19.9424 0 19.9205 0 19.8986 0C19.8767 0 19.8548 0 19.8329 0C19.811 0 19.789 0 19.7671 0C19.7452 0 19.7233 0 19.7014 0C19.6794 0 19.6575 0 19.6356 0C19.6136 0 19.5917 0 19.5698 0C19.5478 0 19.5259 0 19.504 0C19.482 0 19.4601 0 19.4381 0C19.4162 0 19.3942 0 19.3723 0C19.3503 0 19.3284 0 19.3064 0C19.2845 0 19.2625 0 19.2406 0C19.2186 0 19.1967 0 19.1747 0C19.1527 0 19.1308 0 19.1088 0C19.0869 0 19.0649 0 19.0429 0C19.021 0 18.999 0 18.977 0C18.9551 0 18.9331 0 18.9111 0C18.8892 0 18.8672 0 18.8452 0C18.8233 0 18.8013 0 18.7793 0C18.7573 0 18.7354 0 18.7134 0C18.6914 0 18.6694 0 18.6475 0C18.6255 0 18.6035 0 18.5816 0C18.5596 0 18.5376 0 18.5156 0C18.4937 0 18.4717 0 18.4497 0C18.4277 0 18.4058 0 18.3838 0C18.3618 0 18.3398 0 18.3179 0C18.2959 0 18.2739 0 18.252 0C18.23 0 18.208 0 18.186 0C18.1641 0 18.1421 0 18.1201 0C18.0982 0 18.0762 0 18.0542 0C18.0323 0 18.0103 0 17.9883 0C17.9664 0 17.9444 0 17.9225 0C17.9005 0 17.8785 0 17.8566 0C17.8346 0 17.8127 0 17.7907 0C17.7688 0 17.7468 0 17.7249 0C17.7029 0 17.681 0 17.659 0C17.6371 0 17.6151 0 17.5932 0C17.5712 0 17.5493 0 17.5274 0C17.5054 0 17.4835 0 17.4616 0C17.4396 0 17.4177 0 17.3958 0C17.3738 0 17.3519 0 17.33 0C17.3081 0 17.2862 0 17.2642 0C17.2423 0 17.2204 0 17.1985 0C17.1766 0 17.1547 0 17.1328 0C17.1109 0 17.089 0 17.0671 0C17.0452 0 17.0233 0 17.0014 0C16.9795 0 16.9576 0 16.9357 0C16.9139 0 16.892 0 16.8701 0C16.8482 0 16.8264 0 16.8045 0C16.7826 0 16.7608 0 16.7389 0C16.7171 0 16.6952 0 16.6734 0C16.6515 0 16.6297 0 16.6078 0C16.586 0 16.5641 0 16.5423 0C16.5205 0 16.4986 0 16.4768 0C16.455 0 16.4332 0 16.4114 0C16.3896 0 16.3678 0 16.346 0C16.3242 0 16.3024 0 16.2806 0C16.2588 0 16.237 0 16.2152 0C16.1934 0 16.1717 0 16.1499 0C16.1281 0 16.1063 0 16.0846 0C16.0628 0 16.0411 0 16.0193 0C15.9976 0 15.9758 0 15.9541 0C15.9324 0 15.9107 0 15.8889 0C15.8672 0 15.8455 0 15.8238 0C15.8021 0 15.7804 0 15.7587 0C15.737 0 15.7153 0 15.6936 0C15.6719 0 15.6502 0 15.6286 0C15.6069 0 15.5852 0 15.5636 0C15.5419 0 15.5203 0 15.4986 0C15.477 0 15.4554 0 15.4337 0C15.4121 0 15.3905 0 15.3689 0C15.3473 0 15.3257 0 15.3041 0C15.2825 0 15.2609 0 15.2393 0C15.2177 0 15.1961 0 15.1746 0C15.153 0 15.1315 0 15.1099 0C15.0884 0 15.0668 0 15.0453 0C15.0237 0 15.0022 0 14.9807 0C14.9592 0 14.9377 0 14.9162 0C14.8947 0 14.8732 0 14.8517 0C14.8302 0 14.8087 0 14.7873 0C14.7658 0 14.7444 0 14.7229 0C14.7015 0 14.68 0 14.6586 0C14.6372 0 14.6157 0 14.5943 0C14.5729 0 14.5515 0 14.5301 0C14.5087 0 14.4874 0 14.466 0C14.4446 0 14.4233 0 14.4019 0C14.3806 0 14.3592 0 14.3379 0C14.3165 0 14.2952 0 14.2739 0C14.2526 0 14.2313 0 14.21 0C14.1887 0 14.1674 0 14.1461 0C14.1249 0 14.1036 0 14.0824 0C14.0611 0 14.0399 0 14.0186 0C13.9974 0 13.9762 0 13.955 0C13.9338 0 13.9126 0 13.8914 0C13.8702 0 13.849 0 13.8279 0C13.8067 0 13.7856 0 13.7644 0C13.7433 0 13.7221 0 13.701 0C13.6799 0 13.6588 0 13.6377 0C13.6166 0 13.5955 0 13.5745 0C13.5534 0 13.5323 0 13.5113 0C13.4902 0 13.4692 0 13.4482 0C13.4271 0 13.4061 0 13.3851 0C13.3641 0 13.3431 0 13.3222 0C13.3012 0 13.2802 0 13.2593 0C13.2383 0 13.2174 0 13.1965 0C13.1755 0 13.1546 0 13.1337 0C13.1128 0 13.092 0 13.0711 0C13.0502 0 13.0293 0 13.0085 0C12.9877 0 12.9668 0 12.946 0C12.9252 0 12.9044 0 12.8836 0C12.8628 0 12.842 0 12.8212 0C12.8005 0 12.7797 0 12.759 0C12.7383 0 12.7175 0 12.6968 0C12.6761 0 12.6554 0 12.6347 0C12.614 0 12.5934 0 12.5727 0C12.5521 0 12.5314 0 12.5108 0C12.4902 0 12.4696 0 12.449 0C12.4284 0 12.4078 0 12.3872 0C12.3667 0 12.3461 0 12.3256 0C12.305 0 12.2845 0 12.264 0C12.2435 0 12.223 0 12.2025 0C12.1821 0 12.1616 0 12.1411 0C12.1207 0 12.1003 0 12.0799 0C12.0594 0 12.039 0 12.0187 0C11.9983 0 11.9779 0 11.9576 0C11.9372 0 11.9169 0 11.8965 0C11.8762 0 11.8559 0 11.8356 0C11.8153 0 11.7951 0 11.7748 0C11.7546 0 11.7343 0 11.7141 0C11.6939 0 11.6737 0 11.6535 0C11.6333 0 11.6131 0 11.593 0C11.5728 0 11.5527 0 11.5325 0C11.5124 0 11.4923 0 11.4722 0C11.4521 0 11.4321 0 11.412 0C11.3919 0 11.3719 0 11.3519 0C11.3319 0 11.3119 0 11.2919 0C11.2719 0 11.2519 0 11.232 0C11.212 0 11.1921 0 11.1722 0C11.1523 0 11.1324 0 11.1125 0C11.0926 0 11.0728 0 11.0529 0C11.0331 0 11.0132 0 10.9934 0C10.9736 0 10.9538 0 10.9341 0C10.9143 0 10.8946 0 10.8748 0C10.8551 0 10.8354 0 10.8157 0C10.796 0 10.7763 0 10.7567 0C10.737 0 10.7174 0 10.6978 0C10.6781 0 10.6585 0 10.639 0C10.6194 0 10.5998 0 10.5803 0C10.5607 0 10.5412 0 10.5217 0C10.5022 0 10.4827 0 10.4633 0C10.4438 0 10.4243 0 10.4049 0C10.3855 0 10.3661 0 10.3467 0C10.3273 0 10.308 0 10.2886 0C10.2693 0 10.25 0 10.2307 0C10.2113 0 10.1921 0 10.1728 0C10.1535 0 10.1343 0 10.1151 0C10.0959 0 10.0767 0 10.0575 0C10.0383 0 10.0191 0 10 0V20ZM25.3239 12.1459L42.1348 88.6602L61.6689 84.3684L44.8579 7.85409L25.3239 12.1459ZM42.1314 88.6446C43.2553 93.7996 46.2876 98.2192 50.4264 101.254L62.2537 85.1262C61.8054 84.7975 61.6955 84.4907 61.6723 84.384L42.1314 88.6446ZM50.4264 101.254C54.5488 104.277 59.5744 105.801 64.6218 105.713L64.2727 85.7158C63.4325 85.7305 62.7184 85.467 62.2537 85.1262L50.4264 101.254ZM64.4473 105.714H125.418V85.7143H64.4473V105.714ZM125.244 105.713C130.291 105.801 135.317 104.277 139.439 101.254L127.612 85.1262C127.147 85.467 126.433 85.7305 125.593 85.7158L125.244 105.713ZM139.439 101.254C143.578 98.2192 146.61 93.7996 147.734 88.6446L128.193 84.384C128.17 84.4907 128.06 84.7975 127.612 85.1262L139.439 101.254ZM147.751 88.5633L157.788 40.6204L138.212 36.5224L128.176 84.4653L147.751 88.5633ZM148 38.5714C148 28.5714 148 28.5714 147.999 28.5714C147.999 28.5714 147.998 28.5714 147.997 28.5714C147.996 28.5714 147.995 28.5714 147.993 28.5714C147.992 28.5714 147.99 28.5714 147.988 28.5714C147.986 28.5714 147.984 28.5714 147.981 28.5714C147.979 28.5714 147.976 28.5714 147.973 28.5714C147.97 28.5714 147.967 28.5714 147.964 28.5714C147.96 28.5714 147.957 28.5714 147.953 28.5714C147.949 28.5714 147.945 28.5714 147.94 28.5714C147.936 28.5714 147.931 28.5714 147.926 28.5714C147.921 28.5714 147.916 28.5714 147.911 28.5714C147.905 28.5714 147.9 28.5714 147.894 28.5714C147.888 28.5714 147.882 28.5714 147.876 28.5714C147.869 28.5714 147.863 28.5714 147.856 28.5714C147.849 28.5714 147.842 28.5714 147.835 28.5714C147.828 28.5714 147.82 28.5714 147.812 28.5714C147.805 28.5714 147.797 28.5714 147.788 28.5714C147.78 28.5714 147.772 28.5714 147.763 28.5714C147.754 28.5714 147.745 28.5714 147.736 28.5714C147.727 28.5714 147.717 28.5714 147.708 28.5714C147.698 28.5714 147.688 28.5714 147.678 28.5714C147.668 28.5714 147.658 28.5714 147.647 28.5714C147.636 28.5714 147.626 28.5714 147.615 28.5714C147.603 28.5714 147.592 28.5714 147.581 28.5714C147.569 28.5714 147.557 28.5714 147.545 28.5714C147.533 28.5714 147.521 28.5714 147.509 28.5714C147.496 28.5714 147.484 28.5714 147.471 28.5714C147.458 28.5714 147.445 28.5714 147.431 28.5714C147.418 28.5714 147.404 28.5714 147.391 28.5714C147.377 28.5714 147.363 28.5714 147.348 28.5714C147.334 28.5714 147.32 28.5714 147.305 28.5714C147.29 28.5714 147.275 28.5714 147.26 28.5714C147.245 28.5714 147.229 28.5714 147.214 28.5714C147.198 28.5714 147.182 28.5714 147.166 28.5714C147.15 28.5714 147.134 28.5714 147.117 28.5714C147.101 28.5714 147.084 28.5714 147.067 28.5714C147.05 28.5714 147.033 28.5714 147.015 28.5714C146.998 28.5714 146.98 28.5714 146.962 28.5714C146.944 28.5714 146.926 28.5714 146.908 28.5714C146.889 28.5714 146.871 28.5714 146.852 28.5714C146.833 28.5714 146.814 28.5714 146.795 28.5714C146.776 28.5714 146.756 28.5714 146.737 28.5714C146.717 28.5714 146.697 28.5714 146.677 28.5714C146.657 28.5714 146.637 28.5714 146.616 28.5714C146.596 28.5714 146.575 28.5714 146.554 28.5714C146.533 28.5714 146.512 28.5714 146.49 28.5714C146.469 28.5714 146.447 28.5714 146.425 28.5714C146.403 28.5714 146.381 28.5714 146.359 28.5714C146.337 28.5714 146.314 28.5714 146.292 28.5714C146.269 28.5714 146.246 28.5714 146.223 28.5714C146.2 28.5714 146.176 28.5714 146.153 28.5714C146.129 28.5714 146.105 28.5714 146.081 28.5714C146.057 28.5714 146.033 28.5714 146.009 28.5714C145.984 28.5714 145.96 28.5714 145.935 28.5714C145.91 28.5714 145.885 28.5714 145.86 28.5714C145.834 28.5714 145.809 28.5714 145.783 28.5714C145.757 28.5714 145.731 28.5714 145.705 28.5714C145.679 28.5714 145.653 28.5714 145.626 28.5714C145.6 28.5714 145.573 28.5714 145.546 28.5714C145.519 28.5714 145.492 28.5714 145.465 28.5714C145.437 28.5714 145.41 28.5714 145.382 28.5714C145.354 28.5714 145.326 28.5714 145.298 28.5714C145.27 28.5714 145.241 28.5714 145.213 28.5714C145.184 28.5714 145.155 28.5714 145.126 28.5714C145.097 28.5714 145.068 28.5714 145.038 28.5714C145.009 28.5714 144.979 28.5714 144.949 28.5714C144.919 28.5714 144.889 28.5714 144.859 28.5714C144.829 28.5714 144.798 28.5714 144.768 28.5714C144.737 28.5714 144.706 28.5714 144.675 28.5714C144.644 28.5714 144.613 28.5714 144.581 28.5714C144.55 28.5714 144.518 28.5714 144.486 28.5714C144.454 28.5714 144.422 28.5714 144.39 28.5714C144.358 28.5714 144.325 28.5714 144.292 28.5714C144.26 28.5714 144.227 28.5714 144.194 28.5714C144.161 28.5714 144.127 28.5714 144.094 28.5714C144.06 28.5714 144.027 28.5714 143.993 28.5714C143.959 28.5714 143.925 28.5714 143.891 28.5714C143.856 28.5714 143.822 28.5714 143.787 28.5714C143.753 28.5714 143.718 28.5714 143.683 28.5714C143.648 28.5714 143.612 28.5714 143.577 28.5714C143.541 28.5714 143.506 28.5714 143.47 28.5714C143.434 28.5714 143.398 28.5714 143.362 28.5714C143.325 28.5714 143.289 28.5714 143.252 28.5714C143.216 28.5714 143.179 28.5714 143.142 28.5714C143.105 28.5714 143.068 28.5714 143.03 28.5714C142.993 28.5714 142.955 28.5714 142.918 28.5714C142.88 28.5714 142.842 28.5714 142.804 28.5714C142.766 28.5714 142.727 28.5714 142.689 28.5714C142.65 28.5714 142.611 28.5714 142.573 28.5714C142.534 28.5714 142.494 28.5714 142.455 28.5714C142.416 28.5714 142.376 28.5714 142.337 28.5714C142.297 28.5714 142.257 28.5714 142.217 28.5714C142.177 28.5714 142.137 28.5714 142.096 28.5714C142.056 28.5714 142.015 28.5714 141.975 28.5714C141.934 28.5714 141.893 28.5714 141.852 28.5714C141.811 28.5714 141.769 28.5714 141.728 28.5714C141.686 28.5714 141.644 28.5714 141.602 28.5714C141.561 28.5714 141.518 28.5714 141.476 28.5714C141.434 28.5714 141.391 28.5714 141.349 28.5714C141.306 28.5714 141.263 28.5714 141.22 28.5714C141.177 28.5714 141.134 28.5714 141.091 28.5714C141.047 28.5714 141.004 28.5714 140.96 28.5714C140.916 28.5714 140.873 28.5714 140.828 28.5714C140.784 28.5714 140.74 28.5714 140.696 28.5714C140.651 28.5714 140.607 28.5714 140.562 28.5714C140.517 28.5714 140.472 28.5714 140.427 28.5714C140.382 28.5714 140.336 28.5714 140.291 28.5714C140.245 28.5714 140.2 28.5714 140.154 28.5714C140.108 28.5714 140.062 28.5714 140.016 28.5714C139.969 28.5714 139.923 28.5714 139.876 28.5714C139.83 28.5714 139.783 28.5714 139.736 28.5714C139.689 28.5714 139.642 28.5714 139.595 28.5714C139.547 28.5714 139.5 28.5714 139.452 28.5714C139.405 28.5714 139.357 28.5714 139.309 28.5714C139.261 28.5714 139.213 28.5714 139.165 28.5714C139.116 28.5714 139.068 28.5714 139.019 28.5714C138.97 28.5714 138.922 28.5714 138.873 28.5714C138.824 28.5714 138.774 28.5714 138.725 28.5714C138.676 28.5714 138.626 28.5714 138.576 28.5714C138.527 28.5714 138.477 28.5714 138.427 28.5714C138.377 28.5714 138.327 28.5714 138.276 28.5714C138.226 28.5714 138.175 28.5714 138.125 28.5714C138.074 28.5714 138.023 28.5714 137.972 28.5714C137.921 28.5714 137.87 28.5714 137.819 28.5714C137.767 28.5714 137.716 28.5714 137.664 28.5714C137.612 28.5714 137.56 28.5714 137.508 28.5714C137.456 28.5714 137.404 28.5714 137.352 28.5714C137.299 28.5714 137.247 28.5714 137.194 28.5714C137.142 28.5714 137.089 28.5714 137.036 28.5714C136.983 28.5714 136.93 28.5714 136.876 28.5714C136.823 28.5714 136.769 28.5714 136.716 28.5714C136.662 28.5714 136.608 28.5714 136.554 28.5714C136.5 28.5714 136.446 28.5714 136.392 28.5714C136.337 28.5714 136.283 28.5714 136.228 28.5714C136.174 28.5714 136.119 28.5714 136.064 28.5714C136.009 28.5714 135.954 28.5714 135.899 28.5714C135.843 28.5714 135.788 28.5714 135.732 28.5714C135.677 28.5714 135.621 28.5714 135.565 28.5714C135.509 28.5714 135.453 28.5714 135.397 28.5714C135.341 28.5714 135.285 28.5714 135.228 28.5714C135.171 28.5714 135.115 28.5714 135.058 28.5714C135.001 28.5714 134.944 28.5714 134.887 28.5714C134.83 28.5714 134.773 28.5714 134.715 28.5714C134.658 28.5714 134.6 28.5714 134.542 28.5714C134.485 28.5714 134.427 28.5714 134.369 28.5714C134.311 28.5714 134.252 28.5714 134.194 28.5714C134.136 28.5714 134.077 28.5714 134.018 28.5714C133.96 28.5714 133.901 28.5714 133.842 28.5714C133.783 28.5714 133.724 28.5714 133.665 28.5714C133.605 28.5714 133.546 28.5714 133.486 28.5714C133.427 28.5714 133.367 28.5714 133.307 28.5714C133.247 28.5714 133.187 28.5714 133.127 28.5714C133.067 28.5714 133.007 28.5714 132.946 28.5714C132.886 28.5714 132.825 28.5714 132.764 28.5714C132.704 28.5714 132.643 28.5714 132.582 28.5714C132.521 28.5714 132.46 28.5714 132.398 28.5714C132.337 28.5714 132.275 28.5714 132.214 28.5714C132.152 28.5714 132.09 28.5714 132.028 28.5714C131.967 28.5714 131.904 28.5714 131.842 28.5714C131.78 28.5714 131.718 28.5714 131.655 28.5714C131.593 28.5714 131.53 28.5714 131.467 28.5714C131.405 28.5714 131.342 28.5714 131.279 28.5714C131.216 28.5714 131.152 28.5714 131.089 28.5714C131.026 28.5714 130.962 28.5714 130.899 28.5714C130.835 28.5714 130.771 28.5714 130.707 28.5714C130.643 28.5714 130.579 28.5714 130.515 28.5714C130.451 28.5714 130.387 28.5714 130.322 28.5714C130.258 28.5714 130.193 28.5714 130.128 28.5714C130.064 28.5714 129.999 28.5714 129.934 28.5714C129.869 28.5714 129.804 28.5714 129.738 28.5714C129.673 28.5714 129.608 28.5714 129.542 28.5714C129.477 28.5714 129.411 28.5714 129.345 28.5714C129.279 28.5714 129.213 28.5714 129.147 28.5714C129.081 28.5714 129.015 28.5714 128.949 28.5714C128.882 28.5714 128.816 28.5714 128.749 28.5714C128.683 28.5714 128.616 28.5714 128.549 28.5714C128.482 28.5714 128.415 28.5714 128.348 28.5714C128.281 28.5714 128.214 28.5714 128.146 28.5714C128.079 28.5714 128.011 28.5714 127.944 28.5714C127.876 28.5714 127.808 28.5714 127.74 28.5714C127.672 28.5714 127.604 28.5714 127.536 28.5714C127.468 28.5714 127.399 28.5714 127.331 28.5714C127.263 28.5714 127.194 28.5714 127.125 28.5714C127.057 28.5714 126.988 28.5714 126.919 28.5714C126.85 28.5714 126.781 28.5714 126.712 28.5714C126.642 28.5714 126.573 28.5714 126.504 28.5714C126.434 28.5714 126.365 28.5714 126.295 28.5714C126.225 28.5714 126.155 28.5714 126.085 28.5714C126.015 28.5714 125.945 28.5714 125.875 28.5714C125.805 28.5714 125.735 28.5714 125.664 28.5714C125.594 28.5714 125.523 28.5714 125.452 28.5714C125.382 28.5714 125.311 28.5714 125.24 28.5714C125.169 28.5714 125.098 28.5714 125.027 28.5714C124.956 28.5714 124.884 28.5714 124.813 28.5714C124.741 28.5714 124.67 28.5714 124.598 28.5714C124.527 28.5714 124.455 28.5714 124.383 28.5714C124.311 28.5714 124.239 28.5714 124.167 28.5714C124.095 28.5714 124.022 28.5714 123.95 28.5714C123.878 28.5714 123.805 28.5714 123.733 28.5714C123.66 28.5714 123.587 28.5714 123.514 28.5714C123.442 28.5714 123.369 28.5714 123.296 28.5714C123.222 28.5714 123.149 28.5714 123.076 28.5714C123.003 28.5714 122.929 28.5714 122.856 28.5714C122.782 28.5714 122.708 28.5714 122.635 28.5714C122.561 28.5714 122.487 28.5714 122.413 28.5714C122.339 28.5714 122.265 28.5714 122.191 28.5714C122.117 28.5714 122.042 28.5714 121.968 28.5714C121.893 28.5714 121.819 28.5714 121.744 28.5714C121.67 28.5714 121.595 28.5714 121.52 28.5714C121.445 28.5714 121.37 28.5714 121.295 28.5714C121.22 28.5714 121.145 28.5714 121.069 28.5714C120.994 28.5714 120.918 28.5714 120.843 28.5714C120.767 28.5714 120.692 28.5714 120.616 28.5714C120.54 28.5714 120.464 28.5714 120.388 28.5714C120.312 28.5714 120.236 28.5714 120.16 28.5714C120.084 28.5714 120.008 28.5714 119.931 28.5714C119.855 28.5714 119.778 28.5714 119.702 28.5714C119.625 28.5714 119.548 28.5714 119.472 28.5714C119.395 28.5714 119.318 28.5714 119.241 28.5714C119.164 28.5714 119.087 28.5714 119.01 28.5714C118.932 28.5714 118.855 28.5714 118.778 28.5714C118.7 28.5714 118.623 28.5714 118.545 28.5714C118.467 28.5714 118.39 28.5714 118.312 28.5714C118.234 28.5714 118.156 28.5714 118.078 28.5714C118 28.5714 117.922 28.5714 117.843 28.5714C117.765 28.5714 117.687 28.5714 117.608 28.5714C117.53 28.5714 117.451 28.5714 117.373 28.5714C117.294 28.5714 117.215 28.5714 117.137 28.5714C117.058 28.5714 116.979 28.5714 116.9 28.5714C116.821 28.5714 116.742 28.5714 116.662 28.5714C116.583 28.5714 116.504 28.5714 116.424 28.5714C116.345 28.5714 116.265 28.5714 116.186 28.5714C116.106 28.5714 116.026 28.5714 115.947 28.5714C115.867 28.5714 115.787 28.5714 115.707 28.5714C115.627 28.5714 115.547 28.5714 115.467 28.5714C115.387 28.5714 115.306 28.5714 115.226 28.5714C115.146 28.5714 115.065 28.5714 114.985 28.5714C114.904 28.5714 114.823 28.5714 114.743 28.5714C114.662 28.5714 114.581 28.5714 114.5 28.5714C114.419 28.5714 114.338 28.5714 114.257 28.5714C114.176 28.5714 114.095 28.5714 114.014 28.5714C113.932 28.5714 113.851 28.5714 113.77 28.5714C113.688 28.5714 113.607 28.5714 113.525 28.5714C113.443 28.5714 113.362 28.5714 113.28 28.5714C113.198 28.5714 113.116 28.5714 113.034 28.5714C112.952 28.5714 112.87 28.5714 112.788 28.5714C112.706 28.5714 112.624 28.5714 112.541 28.5714C112.459 28.5714 112.377 28.5714 112.294 28.5714C112.212 28.5714 112.129 28.5714 112.046 28.5714C111.964 28.5714 111.881 28.5714 111.798 28.5714C111.715 28.5714 111.632 28.5714 111.549 28.5714C111.466 28.5714 111.383 28.5714 111.3 28.5714C111.217 28.5714 111.134 28.5714 111.05 28.5714C110.967 28.5714 110.884 28.5714 110.8 28.5714C110.717 28.5714 110.633 28.5714 110.55 28.5714C110.466 28.5714 110.382 28.5714 110.298 28.5714C110.215 28.5714 110.131 28.5714 110.047 28.5714C109.963 28.5714 109.879 28.5714 109.795 28.5714C109.71 28.5714 109.626 28.5714 109.542 28.5714C109.458 28.5714 109.373 28.5714 109.289 28.5714C109.205 28.5714 109.12 28.5714 109.035 28.5714C108.951 28.5714 108.866 28.5714 108.781 28.5714C108.697 28.5714 108.612 28.5714 108.527 28.5714C108.442 28.5714 108.357 28.5714 108.272 28.5714C108.187 28.5714 108.102 28.5714 108.017 28.5714C107.932 28.5714 107.846 28.5714 107.761 28.5714C107.676 28.5714 107.59 28.5714 107.505 28.5714C107.419 28.5714 107.334 28.5714 107.248 28.5714C107.163 28.5714 107.077 28.5714 106.991 28.5714C106.905 28.5714 106.82 28.5714 106.734 28.5714C106.648 28.5714 106.562 28.5714 106.476 28.5714C106.39 28.5714 106.304 28.5714 106.217 28.5714C106.131 28.5714 106.045 28.5714 105.959 28.5714C105.872 28.5714 105.786 28.5714 105.7 28.5714C105.613 28.5714 105.527 28.5714 105.44 28.5714C105.353 28.5714 105.267 28.5714 105.18 28.5714C105.093 28.5714 105.007 28.5714 104.92 28.5714C104.833 28.5714 104.746 28.5714 104.659 28.5714C104.572 28.5714 104.485 28.5714 104.398 28.5714C104.311 28.5714 104.224 28.5714 104.136 28.5714C104.049 28.5714 103.962 28.5714 103.874 28.5714C103.787 28.5714 103.7 28.5714 103.612 28.5714C103.525 28.5714 103.437 28.5714 103.35 28.5714C103.262 28.5714 103.174 28.5714 103.087 28.5714C102.999 28.5714 102.911 28.5714 102.823 28.5714C102.735 28.5714 102.647 28.5714 102.559 28.5714C102.471 28.5714 102.383 28.5714 102.295 28.5714C102.207 28.5714 102.119 28.5714 102.031 28.5714C101.943 28.5714 101.854 28.5714 101.766 28.5714C101.678 28.5714 101.589 28.5714 101.501 28.5714C101.412 28.5714 101.324 28.5714 101.235 28.5714C101.147 28.5714 101.058 28.5714 100.969 28.5714C100.881 28.5714 100.792 28.5714 100.703 28.5714C100.615 28.5714 100.526 28.5714 100.437 28.5714C100.348 28.5714 100.259 28.5714 100.17 28.5714C100.081 28.5714 99.9919 28.5714 99.9028 28.5714C99.8137 28.5714 99.7246 28.5714 99.6354 28.5714C99.5462 28.5714 99.4569 28.5714 99.3676 28.5714C99.2783 28.5714 99.1889 28.5714 99.0995 28.5714C99.0101 28.5714 98.9206 28.5714 98.8311 28.5714C98.7416 28.5714 98.652 28.5714 98.5624 28.5714C98.4728 28.5714 98.3831 28.5714 98.2934 28.5714C98.2036 28.5714 98.1139 28.5714 98.0241 28.5714C97.9342 28.5714 97.8444 28.5714 97.7545 28.5714C97.6646 28.5714 97.5746 28.5714 97.4846 28.5714C97.3946 28.5714 97.3045 28.5714 97.2144 28.5714C97.1243 28.5714 97.0342 28.5714 96.944 28.5714C96.8538 28.5714 96.7636 28.5714 96.6733 28.5714C96.583 28.5714 96.4927 28.5714 96.4023 28.5714C96.3119 28.5714 96.2215 28.5714 96.131 28.5714C96.0406 28.5714 95.9501 28.5714 95.8595 28.5714C95.769 28.5714 95.6784 28.5714 95.5877 28.5714C95.4971 28.5714 95.4064 28.5714 95.3157 28.5714C95.225 28.5714 95.1342 28.5714 95.0434 28.5714C94.9526 28.5714 94.8618 28.5714 94.7709 28.5714C94.68 28.5714 94.5891 28.5714 94.4981 28.5714C94.4072 28.5714 94.3161 28.5714 94.2251 28.5714C94.1341 28.5714 94.043 28.5714 93.9519 28.5714C93.8607 28.5714 93.7696 28.5714 93.6784 28.5714C93.5872 28.5714 93.4959 28.5714 93.4047 28.5714C93.3134 28.5714 93.2221 28.5714 93.1307 28.5714C93.0394 28.5714 92.948 28.5714 92.8566 28.5714C92.7652 28.5714 92.6737 28.5714 92.5822 28.5714C92.4907 28.5714 92.3992 28.5714 92.3076 28.5714C92.2161 28.5714 92.1245 28.5714 92.0328 28.5714C91.9412 28.5714 91.8495 28.5714 91.7578 28.5714C91.6661 28.5714 91.5744 28.5714 91.4826 28.5714C91.3909 28.5714 91.2991 28.5714 91.2073 28.5714C91.1154 28.5714 91.0236 28.5714 90.9317 28.5714C90.8398 28.5714 90.7479 28.5714 90.6559 28.5714C90.564 28.5714 90.472 28.5714 90.38 28.5714C90.2879 28.5714 90.1959 28.5714 90.1038 28.5714C90.0117 28.5714 89.9196 28.5714 89.8275 28.5714C89.7354 28.5714 89.6432 28.5714 89.551 28.5714C89.4588 28.5714 89.3666 28.5714 89.2744 28.5714C89.1821 28.5714 89.0898 28.5714 88.9976 28.5714C88.9053 28.5714 88.8129 28.5714 88.7206 28.5714C88.6282 28.5714 88.5358 28.5714 88.4434 28.5714C88.351 28.5714 88.2586 28.5714 88.1662 28.5714C88.0737 28.5714 87.9812 28.5714 87.8887 28.5714C87.7962 28.5714 87.7037 28.5714 87.6111 28.5714C87.5186 28.5714 87.426 28.5714 87.3334 28.5714C87.2408 28.5714 87.1482 28.5714 87.0556 28.5714C86.9629 28.5714 86.8702 28.5714 86.7776 28.5714C86.6849 28.5714 86.5922 28.5714 86.4994 28.5714C86.4067 28.5714 86.314 28.5714 86.2212 28.5714C86.1284 28.5714 86.0356 28.5714 85.9428 28.5714C85.85 28.5714 85.7572 28.5714 85.6643 28.5714C85.5715 28.5714 85.4786 28.5714 85.3857 28.5714C85.2929 28.5714 85.2 28.5714 85.107 28.5714C85.0141 28.5714 84.9212 28.5714 84.8282 28.5714C84.7353 28.5714 84.6423 28.5714 84.5493 28.5714C84.4563 28.5714 84.3633 28.5714 84.2703 28.5714C84.1773 28.5714 84.0842 28.5714 83.9912 28.5714C83.8981 28.5714 83.8051 28.5714 83.712 28.5714C83.6189 28.5714 83.5258 28.5714 83.4327 28.5714C83.3396 28.5714 83.2465 28.5714 83.1534 28.5714C83.0602 28.5714 82.9671 28.5714 82.8739 28.5714C82.7808 28.5714 82.6876 28.5714 82.5944 28.5714C82.5012 28.5714 82.408 28.5714 82.3148 28.5714C82.2216 28.5714 82.1284 28.5714 82.0352 28.5714C81.942 28.5714 81.8487 28.5714 81.7555 28.5714C81.6622 28.5714 81.569 28.5714 81.4757 28.5714C81.3824 28.5714 81.2892 28.5714 81.1959 28.5714C81.1026 28.5714 81.0093 28.5714 80.916 28.5714C80.8227 28.5714 80.7294 28.5714 80.6361 28.5714C80.5428 28.5714 80.4494 28.5714 80.3561 28.5714C80.2628 28.5714 80.1695 28.5714 80.0761 28.5714C79.9828 28.5714 79.8894 28.5714 79.7961 28.5714C79.7027 28.5714 79.6094 28.5714 79.516 28.5714C79.4227 28.5714 79.3293 28.5714 79.2359 28.5714C79.1426 28.5714 79.0492 28.5714 78.9558 28.5714C78.8624 28.5714 78.7691 28.5714 78.6757 28.5714C78.5823 28.5714 78.4889 28.5714 78.3955 28.5714C78.3022 28.5714 78.2088 28.5714 78.1154 28.5714C78.022 28.5714 77.9286 28.5714 77.8352 28.5714C77.7418 28.5714 77.6485 28.5714 77.5551 28.5714C77.4617 28.5714 77.3683 28.5714 77.2749 28.5714C77.1815 28.5714 77.0881 28.5714 76.9947 28.5714C76.9014 28.5714 76.808 28.5714 76.7146 28.5714C76.6212 28.5714 76.5278 28.5714 76.4345 28.5714C76.3411 28.5714 76.2477 28.5714 76.1543 28.5714C76.061 28.5714 75.9676 28.5714 75.8742 28.5714C75.7809 28.5714 75.6875 28.5714 75.5942 28.5714C75.5008 28.5714 75.4075 28.5714 75.3141 28.5714C75.2208 28.5714 75.1274 28.5714 75.0341 28.5714C74.9408 28.5714 74.8474 28.5714 74.7541 28.5714C74.6608 28.5714 74.5675 28.5714 74.4742 28.5714C74.3809 28.5714 74.2876 28.5714 74.1943 28.5714C74.101 28.5714 74.0077 28.5714 73.9145 28.5714C73.8212 28.5714 73.7279 28.5714 73.6347 28.5714C73.5414 28.5714 73.4482 28.5714 73.3549 28.5714C73.2617 28.5714 73.1685 28.5714 73.0753 28.5714C72.9821 28.5714 72.8889 28.5714 72.7957 28.5714C72.7025 28.5714 72.6093 28.5714 72.5161 28.5714C72.423 28.5714 72.3298 28.5714 72.2367 28.5714C72.1435 28.5714 72.0504 28.5714 71.9573 28.5714C71.8642 28.5714 71.771 28.5714 71.678 28.5714C71.5849 28.5714 71.4918 28.5714 71.3987 28.5714C71.3057 28.5714 71.2126 28.5714 71.1196 28.5714C71.0266 28.5714 70.9336 28.5714 70.8406 28.5714C70.7476 28.5714 70.6546 28.5714 70.5616 28.5714C70.4686 28.5714 70.3757 28.5714 70.2828 28.5714C70.1898 28.5714 70.0969 28.5714 70.004 28.5714C69.9111 28.5714 69.8182 28.5714 69.7254 28.5714C69.6325 28.5714 69.5397 28.5714 69.4468 28.5714C69.354 28.5714 69.2612 28.5714 69.1684 28.5714C69.0757 28.5714 68.9829 28.5714 68.8901 28.5714C68.7974 28.5714 68.7047 28.5714 68.612 28.5714C68.5193 28.5714 68.4266 28.5714 68.3339 28.5714C68.2413 28.5714 68.1486 28.5714 68.056 28.5714C67.9634 28.5714 67.8708 28.5714 67.7783 28.5714C67.6857 28.5714 67.5932 28.5714 67.5006 28.5714C67.4081 28.5714 67.3156 28.5714 67.2231 28.5714C67.1307 28.5714 67.0382 28.5714 66.9458 28.5714C66.8534 28.5714 66.761 28.5714 66.6686 28.5714C66.5762 28.5714 66.4839 28.5714 66.3916 28.5714C66.2993 28.5714 66.207 28.5714 66.1147 28.5714C66.0224 28.5714 65.9302 28.5714 65.838 28.5714C65.7458 28.5714 65.6536 28.5714 65.5614 28.5714C65.4693 28.5714 65.3772 28.5714 65.2851 28.5714C65.193 28.5714 65.1009 28.5714 65.0089 28.5714C64.9168 28.5714 64.8248 28.5714 64.7329 28.5714C64.6409 28.5714 64.5489 28.5714 64.457 28.5714C64.3651 28.5714 64.2732 28.5714 64.1814 28.5714C64.0895 28.5714 63.9977 28.5714 63.9059 28.5714C63.8141 28.5714 63.7224 28.5714 63.6306 28.5714C63.5389 28.5714 63.4472 28.5714 63.3556 28.5714C63.2639 28.5714 63.1723 28.5714 63.0807 28.5714C62.9891 28.5714 62.8976 28.5714 62.8061 28.5714C62.7145 28.5714 62.6231 28.5714 62.5316 28.5714C62.4402 28.5714 62.3488 28.5714 62.2574 28.5714C62.166 28.5714 62.0747 28.5714 61.9834 28.5714C61.8921 28.5714 61.8008 28.5714 61.7096 28.5714C61.6183 28.5714 61.5272 28.5714 61.436 28.5714C61.3449 28.5714 61.2537 28.5714 61.1627 28.5714C61.0716 28.5714 60.9806 28.5714 60.8896 28.5714C60.7986 28.5714 60.7076 28.5714 60.6167 28.5714C60.5258 28.5714 60.4349 28.5714 60.3441 28.5714C60.2533 28.5714 60.1625 28.5714 60.0717 28.5714C59.981 28.5714 59.8903 28.5714 59.7996 28.5714C59.7089 28.5714 59.6183 28.5714 59.5277 28.5714C59.4371 28.5714 59.3466 28.5714 59.2561 28.5714C59.1656 28.5714 59.0752 28.5714 58.9848 28.5714C58.8944 28.5714 58.804 28.5714 58.7137 28.5714C58.6234 28.5714 58.5331 28.5714 58.4429 28.5714C58.3526 28.5714 58.2625 28.5714 58.1723 28.5714C58.0822 28.5714 57.9921 28.5714 57.9021 28.5714C57.812 28.5714 57.722 28.5714 57.6321 28.5714C57.5421 28.5714 57.4522 28.5714 57.3624 28.5714C57.2725 28.5714 57.1827 28.5714 57.093 28.5714C57.0032 28.5714 56.9135 28.5714 56.8239 28.5714C56.7342 28.5714 56.6446 28.5714 56.5551 28.5714C56.4655 28.5714 56.376 28.5714 56.2866 28.5714C56.1971 28.5714 56.1077 28.5714 56.0183 28.5714C55.929 28.5714 55.8397 28.5714 55.7504 28.5714C55.6612 28.5714 55.572 28.5714 55.4829 28.5714C55.3937 28.5714 55.3046 28.5714 55.2156 28.5714C55.1266 28.5714 55.0376 28.5714 54.9486 28.5714C54.8597 28.5714 54.7708 28.5714 54.682 28.5714C54.5932 28.5714 54.5044 28.5714 54.4157 28.5714C54.327 28.5714 54.2384 28.5714 54.1498 28.5714C54.0612 28.5714 53.9726 28.5714 53.8841 28.5714C53.7957 28.5714 53.7072 28.5714 53.6189 28.5714C53.5305 28.5714 53.4422 28.5714 53.3539 28.5714C53.2657 28.5714 53.1775 28.5714 53.0893 28.5714C53.0012 28.5714 52.9131 28.5714 52.8251 28.5714C52.7371 28.5714 52.6491 28.5714 52.5612 28.5714C52.4733 28.5714 52.3855 28.5714 52.2977 28.5714C52.2099 28.5714 52.1222 28.5714 52.0346 28.5714C51.9469 28.5714 51.8593 28.5714 51.7718 28.5714C51.6842 28.5714 51.5968 28.5714 51.5094 28.5714C51.422 28.5714 51.3346 28.5714 51.2473 28.5714C51.16 28.5714 51.0728 28.5714 50.9857 28.5714C50.8985 28.5714 50.8114 28.5714 50.7244 28.5714C50.6374 28.5714 50.5504 28.5714 50.4635 28.5714C50.3766 28.5714 50.2898 28.5714 50.203 28.5714C50.1163 28.5714 50.0296 28.5714 49.9429 28.5714C49.8563 28.5714 49.7697 28.5714 49.6832 28.5714C49.5967 28.5714 49.5103 28.5714 49.4239 28.5714C49.3376 28.5714 49.2513 28.5714 49.1651 28.5714C49.0788 28.5714 48.9927 28.5714 48.9066 28.5714C48.8205 28.5714 48.7345 28.5714 48.6485 28.5714C48.5626 28.5714 48.4767 28.5714 48.3909 28.5714C48.3051 28.5714 48.2194 28.5714 48.1337 28.5714C48.048 28.5714 47.9624 28.5714 47.8769 28.5714C47.7914 28.5714 47.7059 28.5714 47.6206 28.5714C47.5352 28.5714 47.4499 28.5714 47.3646 28.5714C47.2794 28.5714 47.1942 28.5714 47.1092 28.5714C47.0241 28.5714 46.9391 28.5714 46.8541 28.5714C46.7692 28.5714 46.6843 28.5714 46.5995 28.5714C46.5148 28.5714 46.43 28.5714 46.3454 28.5714C46.2608 28.5714 46.1762 28.5714 46.0917 28.5714C46.0073 28.5714 45.9228 28.5714 45.8385 28.5714C45.7542 28.5714 45.6699 28.5714 45.5858 28.5714C45.5016 28.5714 45.4175 28.5714 45.3335 28.5714C45.2495 28.5714 45.1655 28.5714 45.0817 28.5714C44.9978 28.5714 44.914 28.5714 44.8303 28.5714C44.7466 28.5714 44.663 28.5714 44.5795 28.5714C44.4959 28.5714 44.4125 28.5714 44.3291 28.5714C44.2457 28.5714 44.1624 28.5714 44.0792 28.5714C43.996 28.5714 43.9128 28.5714 43.8298 28.5714C43.7467 28.5714 43.6638 28.5714 43.5809 28.5714C43.498 28.5714 43.4152 28.5714 43.3325 28.5714C43.2497 28.5714 43.1671 28.5714 43.0846 28.5714C43.002 28.5714 42.9195 28.5714 42.8372 28.5714C42.7548 28.5714 42.6725 28.5714 42.5903 28.5714C42.5081 28.5714 42.4259 28.5714 42.3439 28.5714C42.2619 28.5714 42.1799 28.5714 42.098 28.5714C42.0162 28.5714 41.9344 28.5714 41.8527 28.5714C41.771 28.5714 41.6894 28.5714 41.6079 28.5714C41.5264 28.5714 41.445 28.5714 41.3636 28.5714V48.5714C41.445 48.5714 41.5264 48.5714 41.6079 48.5714C41.6894 48.5714 41.771 48.5714 41.8527 48.5714C41.9344 48.5714 42.0162 48.5714 42.098 48.5714C42.1799 48.5714 42.2619 48.5714 42.3439 48.5714C42.4259 48.5714 42.5081 48.5714 42.5903 48.5714C42.6725 48.5714 42.7548 48.5714 42.8372 48.5714C42.9195 48.5714 43.002 48.5714 43.0846 48.5714C43.1671 48.5714 43.2497 48.5714 43.3325 48.5714C43.4152 48.5714 43.498 48.5714 43.5809 48.5714C43.6638 48.5714 43.7467 48.5714 43.8298 48.5714C43.9128 48.5714 43.996 48.5714 44.0792 48.5714C44.1624 48.5714 44.2457 48.5714 44.3291 48.5714C44.4125 48.5714 44.4959 48.5714 44.5795 48.5714C44.663 48.5714 44.7466 48.5714 44.8303 48.5714C44.914 48.5714 44.9978 48.5714 45.0817 48.5714C45.1655 48.5714 45.2495 48.5714 45.3335 48.5714C45.4175 48.5714 45.5016 48.5714 45.5858 48.5714C45.6699 48.5714 45.7542 48.5714 45.8385 48.5714C45.9228 48.5714 46.0073 48.5714 46.0917 48.5714C46.1762 48.5714 46.2608 48.5714 46.3454 48.5714C46.43 48.5714 46.5148 48.5714 46.5995 48.5714C46.6843 48.5714 46.7692 48.5714 46.8541 48.5714C46.9391 48.5714 47.0241 48.5714 47.1092 48.5714C47.1942 48.5714 47.2794 48.5714 47.3646 48.5714C47.4499 48.5714 47.5352 48.5714 47.6206 48.5714C47.7059 48.5714 47.7914 48.5714 47.8769 48.5714C47.9624 48.5714 48.048 48.5714 48.1337 48.5714C48.2194 48.5714 48.3051 48.5714 48.3909 48.5714C48.4767 48.5714 48.5626 48.5714 48.6485 48.5714C48.7345 48.5714 48.8205 48.5714 48.9066 48.5714C48.9927 48.5714 49.0788 48.5714 49.1651 48.5714C49.2513 48.5714 49.3376 48.5714 49.4239 48.5714C49.5103 48.5714 49.5967 48.5714 49.6832 48.5714C49.7697 48.5714 49.8563 48.5714 49.9429 48.5714C50.0296 48.5714 50.1163 48.5714 50.203 48.5714C50.2898 48.5714 50.3766 48.5714 50.4635 48.5714C50.5504 48.5714 50.6374 48.5714 50.7244 48.5714C50.8114 48.5714 50.8985 48.5714 50.9857 48.5714C51.0728 48.5714 51.16 48.5714 51.2473 48.5714C51.3346 48.5714 51.422 48.5714 51.5094 48.5714C51.5968 48.5714 51.6842 48.5714 51.7718 48.5714C51.8593 48.5714 51.9469 48.5714 52.0346 48.5714C52.1222 48.5714 52.2099 48.5714 52.2977 48.5714C52.3855 48.5714 52.4733 48.5714 52.5612 48.5714C52.6491 48.5714 52.7371 48.5714 52.8251 48.5714C52.9131 48.5714 53.0012 48.5714 53.0893 48.5714C53.1775 48.5714 53.2657 48.5714 53.3539 48.5714C53.4422 48.5714 53.5305 48.5714 53.6189 48.5714C53.7072 48.5714 53.7957 48.5714 53.8841 48.5714C53.9726 48.5714 54.0612 48.5714 54.1498 48.5714C54.2384 48.5714 54.327 48.5714 54.4157 48.5714C54.5044 48.5714 54.5932 48.5714 54.682 48.5714C54.7708 48.5714 54.8597 48.5714 54.9486 48.5714C55.0376 48.5714 55.1266 48.5714 55.2156 48.5714C55.3046 48.5714 55.3937 48.5714 55.4829 48.5714C55.572 48.5714 55.6612 48.5714 55.7504 48.5714C55.8397 48.5714 55.929 48.5714 56.0183 48.5714C56.1077 48.5714 56.1971 48.5714 56.2866 48.5714C56.376 48.5714 56.4655 48.5714 56.5551 48.5714C56.6446 48.5714 56.7342 48.5714 56.8239 48.5714C56.9135 48.5714 57.0032 48.5714 57.093 48.5714C57.1827 48.5714 57.2725 48.5714 57.3624 48.5714C57.4522 48.5714 57.5421 48.5714 57.6321 48.5714C57.722 48.5714 57.812 48.5714 57.9021 48.5714C57.9921 48.5714 58.0822 48.5714 58.1723 48.5714C58.2625 48.5714 58.3526 48.5714 58.4429 48.5714C58.5331 48.5714 58.6234 48.5714 58.7137 48.5714C58.804 48.5714 58.8944 48.5714 58.9848 48.5714C59.0752 48.5714 59.1656 48.5714 59.2561 48.5714C59.3466 48.5714 59.4371 48.5714 59.5277 48.5714C59.6183 48.5714 59.7089 48.5714 59.7996 48.5714C59.8903 48.5714 59.981 48.5714 60.0717 48.5714C60.1625 48.5714 60.2533 48.5714 60.3441 48.5714C60.4349 48.5714 60.5258 48.5714 60.6167 48.5714C60.7076 48.5714 60.7986 48.5714 60.8896 48.5714C60.9806 48.5714 61.0716 48.5714 61.1627 48.5714C61.2537 48.5714 61.3449 48.5714 61.436 48.5714C61.5272 48.5714 61.6183 48.5714 61.7096 48.5714C61.8008 48.5714 61.8921 48.5714 61.9834 48.5714C62.0747 48.5714 62.166 48.5714 62.2574 48.5714C62.3488 48.5714 62.4402 48.5714 62.5316 48.5714C62.6231 48.5714 62.7145 48.5714 62.8061 48.5714C62.8976 48.5714 62.9891 48.5714 63.0807 48.5714C63.1723 48.5714 63.2639 48.5714 63.3556 48.5714C63.4472 48.5714 63.5389 48.5714 63.6306 48.5714C63.7224 48.5714 63.8141 48.5714 63.9059 48.5714C63.9977 48.5714 64.0895 48.5714 64.1814 48.5714C64.2732 48.5714 64.3651 48.5714 64.457 48.5714C64.5489 48.5714 64.6409 48.5714 64.7329 48.5714C64.8248 48.5714 64.9168 48.5714 65.0089 48.5714C65.1009 48.5714 65.193 48.5714 65.2851 48.5714C65.3772 48.5714 65.4693 48.5714 65.5614 48.5714C65.6536 48.5714 65.7458 48.5714 65.838 48.5714C65.9302 48.5714 66.0224 48.5714 66.1147 48.5714C66.207 48.5714 66.2993 48.5714 66.3916 48.5714C66.4839 48.5714 66.5762 48.5714 66.6686 48.5714C66.761 48.5714 66.8534 48.5714 66.9458 48.5714C67.0382 48.5714 67.1307 48.5714 67.2231 48.5714C67.3156 48.5714 67.4081 48.5714 67.5006 48.5714C67.5932 48.5714 67.6857 48.5714 67.7783 48.5714C67.8708 48.5714 67.9634 48.5714 68.056 48.5714C68.1486 48.5714 68.2413 48.5714 68.3339 48.5714C68.4266 48.5714 68.5193 48.5714 68.612 48.5714C68.7047 48.5714 68.7974 48.5714 68.8901 48.5714C68.9829 48.5714 69.0757 48.5714 69.1684 48.5714C69.2612 48.5714 69.354 48.5714 69.4468 48.5714C69.5397 48.5714 69.6325 48.5714 69.7254 48.5714C69.8182 48.5714 69.9111 48.5714 70.004 48.5714C70.0969 48.5714 70.1898 48.5714 70.2828 48.5714C70.3757 48.5714 70.4686 48.5714 70.5616 48.5714C70.6546 48.5714 70.7476 48.5714 70.8406 48.5714C70.9336 48.5714 71.0266 48.5714 71.1196 48.5714C71.2126 48.5714 71.3057 48.5714 71.3987 48.5714C71.4918 48.5714 71.5849 48.5714 71.678 48.5714C71.771 48.5714 71.8642 48.5714 71.9573 48.5714C72.0504 48.5714 72.1435 48.5714 72.2367 48.5714C72.3298 48.5714 72.423 48.5714 72.5161 48.5714C72.6093 48.5714 72.7025 48.5714 72.7957 48.5714C72.8889 48.5714 72.9821 48.5714 73.0753 48.5714C73.1685 48.5714 73.2617 48.5714 73.3549 48.5714C73.4482 48.5714 73.5414 48.5714 73.6347 48.5714C73.7279 48.5714 73.8212 48.5714 73.9145 48.5714C74.0077 48.5714 74.101 48.5714 74.1943 48.5714C74.2876 48.5714 74.3809 48.5714 74.4742 48.5714C74.5675 48.5714 74.6608 48.5714 74.7541 48.5714C74.8474 48.5714 74.9408 48.5714 75.0341 48.5714C75.1274 48.5714 75.2208 48.5714 75.3141 48.5714C75.4075 48.5714 75.5008 48.5714 75.5942 48.5714C75.6875 48.5714 75.7809 48.5714 75.8742 48.5714C75.9676 48.5714 76.061 48.5714 76.1543 48.5714C76.2477 48.5714 76.3411 48.5714 76.4345 48.5714C76.5278 48.5714 76.6212 48.5714 76.7146 48.5714C76.808 48.5714 76.9014 48.5714 76.9947 48.5714C77.0881 48.5714 77.1815 48.5714 77.2749 48.5714C77.3683 48.5714 77.4617 48.5714 77.5551 48.5714C77.6485 48.5714 77.7418 48.5714 77.8352 48.5714C77.9286 48.5714 78.022 48.5714 78.1154 48.5714C78.2088 48.5714 78.3022 48.5714 78.3955 48.5714C78.4889 48.5714 78.5823 48.5714 78.6757 48.5714C78.7691 48.5714 78.8624 48.5714 78.9558 48.5714C79.0492 48.5714 79.1426 48.5714 79.2359 48.5714C79.3293 48.5714 79.4227 48.5714 79.516 48.5714C79.6094 48.5714 79.7027 48.5714 79.7961 48.5714C79.8894 48.5714 79.9828 48.5714 80.0761 48.5714C80.1695 48.5714 80.2628 48.5714 80.3561 48.5714C80.4494 48.5714 80.5428 48.5714 80.6361 48.5714C80.7294 48.5714 80.8227 48.5714 80.916 48.5714C81.0093 48.5714 81.1026 48.5714 81.1959 48.5714C81.2892 48.5714 81.3824 48.5714 81.4757 48.5714C81.569 48.5714 81.6622 48.5714 81.7555 48.5714C81.8487 48.5714 81.942 48.5714 82.0352 48.5714C82.1284 48.5714 82.2216 48.5714 82.3148 48.5714C82.408 48.5714 82.5012 48.5714 82.5944 48.5714C82.6876 48.5714 82.7808 48.5714 82.8739 48.5714C82.9671 48.5714 83.0602 48.5714 83.1534 48.5714C83.2465 48.5714 83.3396 48.5714 83.4327 48.5714C83.5258 48.5714 83.6189 48.5714 83.712 48.5714C83.8051 48.5714 83.8981 48.5714 83.9912 48.5714C84.0842 48.5714 84.1773 48.5714 84.2703 48.5714C84.3633 48.5714 84.4563 48.5714 84.5493 48.5714C84.6423 48.5714 84.7353 48.5714 84.8282 48.5714C84.9212 48.5714 85.0141 48.5714 85.107 48.5714C85.2 48.5714 85.2929 48.5714 85.3857 48.5714C85.4786 48.5714 85.5715 48.5714 85.6643 48.5714C85.7572 48.5714 85.85 48.5714 85.9428 48.5714C86.0356 48.5714 86.1284 48.5714 86.2212 48.5714C86.314 48.5714 86.4067 48.5714 86.4994 48.5714C86.5922 48.5714 86.6849 48.5714 86.7776 48.5714C86.8702 48.5714 86.9629 48.5714 87.0556 48.5714C87.1482 48.5714 87.2408 48.5714 87.3334 48.5714C87.426 48.5714 87.5186 48.5714 87.6111 48.5714C87.7037 48.5714 87.7962 48.5714 87.8887 48.5714C87.9812 48.5714 88.0737 48.5714 88.1662 48.5714C88.2586 48.5714 88.351 48.5714 88.4434 48.5714C88.5358 48.5714 88.6282 48.5714 88.7206 48.5714C88.8129 48.5714 88.9053 48.5714 88.9976 48.5714C89.0898 48.5714 89.1821 48.5714 89.2744 48.5714C89.3666 48.5714 89.4588 48.5714 89.551 48.5714C89.6432 48.5714 89.7354 48.5714 89.8275 48.5714C89.9196 48.5714 90.0117 48.5714 90.1038 48.5714C90.1959 48.5714 90.2879 48.5714 90.38 48.5714C90.472 48.5714 90.564 48.5714 90.6559 48.5714C90.7479 48.5714 90.8398 48.5714 90.9317 48.5714C91.0236 48.5714 91.1154 48.5714 91.2073 48.5714C91.2991 48.5714 91.3909 48.5714 91.4826 48.5714C91.5744 48.5714 91.6661 48.5714 91.7578 48.5714C91.8495 48.5714 91.9412 48.5714 92.0328 48.5714C92.1245 48.5714 92.2161 48.5714 92.3076 48.5714C92.3992 48.5714 92.4907 48.5714 92.5822 48.5714C92.6737 48.5714 92.7652 48.5714 92.8566 48.5714C92.948 48.5714 93.0394 48.5714 93.1307 48.5714C93.2221 48.5714 93.3134 48.5714 93.4047 48.5714C93.4959 48.5714 93.5872 48.5714 93.6784 48.5714C93.7696 48.5714 93.8607 48.5714 93.9519 48.5714C94.043 48.5714 94.1341 48.5714 94.2251 48.5714C94.3161 48.5714 94.4072 48.5714 94.4981 48.5714C94.5891 48.5714 94.68 48.5714 94.7709 48.5714C94.8618 48.5714 94.9526 48.5714 95.0434 48.5714C95.1342 48.5714 95.225 48.5714 95.3157 48.5714C95.4064 48.5714 95.4971 48.5714 95.5877 48.5714C95.6784 48.5714 95.769 48.5714 95.8595 48.5714C95.9501 48.5714 96.0406 48.5714 96.131 48.5714C96.2215 48.5714 96.3119 48.5714 96.4023 48.5714C96.4927 48.5714 96.583 48.5714 96.6733 48.5714C96.7636 48.5714 96.8538 48.5714 96.944 48.5714C97.0342 48.5714 97.1243 48.5714 97.2144 48.5714C97.3045 48.5714 97.3946 48.5714 97.4846 48.5714C97.5746 48.5714 97.6646 48.5714 97.7545 48.5714C97.8444 48.5714 97.9342 48.5714 98.0241 48.5714C98.1139 48.5714 98.2036 48.5714 98.2934 48.5714C98.3831 48.5714 98.4728 48.5714 98.5624 48.5714C98.652 48.5714 98.7416 48.5714 98.8311 48.5714C98.9206 48.5714 99.0101 48.5714 99.0995 48.5714C99.1889 48.5714 99.2783 48.5714 99.3676 48.5714C99.4569 48.5714 99.5462 48.5714 99.6354 48.5714C99.7246 48.5714 99.8137 48.5714 99.9028 48.5714C99.9919 48.5714 100.081 48.5714 100.17 48.5714C100.259 48.5714 100.348 48.5714 100.437 48.5714C100.526 48.5714 100.615 48.5714 100.703 48.5714C100.792 48.5714 100.881 48.5714 100.969 48.5714C101.058 48.5714 101.147 48.5714 101.235 48.5714C101.324 48.5714 101.412 48.5714 101.501 48.5714C101.589 48.5714 101.678 48.5714 101.766 48.5714C101.854 48.5714 101.943 48.5714 102.031 48.5714C102.119 48.5714 102.207 48.5714 102.295 48.5714C102.383 48.5714 102.471 48.5714 102.559 48.5714C102.647 48.5714 102.735 48.5714 102.823 48.5714C102.911 48.5714 102.999 48.5714 103.087 48.5714C103.174 48.5714 103.262 48.5714 103.35 48.5714C103.437 48.5714 103.525 48.5714 103.612 48.5714C103.7 48.5714 103.787 48.5714 103.874 48.5714C103.962 48.5714 104.049 48.5714 104.136 48.5714C104.224 48.5714 104.311 48.5714 104.398 48.5714C104.485 48.5714 104.572 48.5714 104.659 48.5714C104.746 48.5714 104.833 48.5714 104.92 48.5714C105.007 48.5714 105.093 48.5714 105.18 48.5714C105.267 48.5714 105.353 48.5714 105.44 48.5714C105.527 48.5714 105.613 48.5714 105.7 48.5714C105.786 48.5714 105.872 48.5714 105.959 48.5714C106.045 48.5714 106.131 48.5714 106.217 48.5714C106.304 48.5714 106.39 48.5714 106.476 48.5714C106.562 48.5714 106.648 48.5714 106.734 48.5714C106.82 48.5714 106.905 48.5714 106.991 48.5714C107.077 48.5714 107.163 48.5714 107.248 48.5714C107.334 48.5714 107.419 48.5714 107.505 48.5714C107.59 48.5714 107.676 48.5714 107.761 48.5714C107.846 48.5714 107.932 48.5714 108.017 48.5714C108.102 48.5714 108.187 48.5714 108.272 48.5714C108.357 48.5714 108.442 48.5714 108.527 48.5714C108.612 48.5714 108.697 48.5714 108.781 48.5714C108.866 48.5714 108.951 48.5714 109.035 48.5714C109.12 48.5714 109.205 48.5714 109.289 48.5714C109.373 48.5714 109.458 48.5714 109.542 48.5714C109.626 48.5714 109.71 48.5714 109.795 48.5714C109.879 48.5714 109.963 48.5714 110.047 48.5714C110.131 48.5714 110.215 48.5714 110.298 48.5714C110.382 48.5714 110.466 48.5714 110.55 48.5714C110.633 48.5714 110.717 48.5714 110.8 48.5714C110.884 48.5714 110.967 48.5714 111.05 48.5714C111.134 48.5714 111.217 48.5714 111.3 48.5714C111.383 48.5714 111.466 48.5714 111.549 48.5714C111.632 48.5714 111.715 48.5714 111.798 48.5714C111.881 48.5714 111.964 48.5714 112.046 48.5714C112.129 48.5714 112.212 48.5714 112.294 48.5714C112.377 48.5714 112.459 48.5714 112.541 48.5714C112.624 48.5714 112.706 48.5714 112.788 48.5714C112.87 48.5714 112.952 48.5714 113.034 48.5714C113.116 48.5714 113.198 48.5714 113.28 48.5714C113.362 48.5714 113.443 48.5714 113.525 48.5714C113.607 48.5714 113.688 48.5714 113.77 48.5714C113.851 48.5714 113.932 48.5714 114.014 48.5714C114.095 48.5714 114.176 48.5714 114.257 48.5714C114.338 48.5714 114.419 48.5714 114.5 48.5714C114.581 48.5714 114.662 48.5714 114.743 48.5714C114.823 48.5714 114.904 48.5714 114.985 48.5714C115.065 48.5714 115.146 48.5714 115.226 48.5714C115.306 48.5714 115.387 48.5714 115.467 48.5714C115.547 48.5714 115.627 48.5714 115.707 48.5714C115.787 48.5714 115.867 48.5714 115.947 48.5714C116.026 48.5714 116.106 48.5714 116.186 48.5714C116.265 48.5714 116.345 48.5714 116.424 48.5714C116.504 48.5714 116.583 48.5714 116.662 48.5714C116.742 48.5714 116.821 48.5714 116.9 48.5714C116.979 48.5714 117.058 48.5714 117.137 48.5714C117.215 48.5714 117.294 48.5714 117.373 48.5714C117.451 48.5714 117.53 48.5714 117.608 48.5714C117.687 48.5714 117.765 48.5714 117.843 48.5714C117.922 48.5714 118 48.5714 118.078 48.5714C118.156 48.5714 118.234 48.5714 118.312 48.5714C118.39 48.5714 118.467 48.5714 118.545 48.5714C118.623 48.5714 118.7 48.5714 118.778 48.5714C118.855 48.5714 118.932 48.5714 119.01 48.5714C119.087 48.5714 119.164 48.5714 119.241 48.5714C119.318 48.5714 119.395 48.5714 119.472 48.5714C119.548 48.5714 119.625 48.5714 119.702 48.5714C119.778 48.5714 119.855 48.5714 119.931 48.5714C120.008 48.5714 120.084 48.5714 120.16 48.5714C120.236 48.5714 120.312 48.5714 120.388 48.5714C120.464 48.5714 120.54 48.5714 120.616 48.5714C120.692 48.5714 120.767 48.5714 120.843 48.5714C120.918 48.5714 120.994 48.5714 121.069 48.5714C121.145 48.5714 121.22 48.5714 121.295 48.5714C121.37 48.5714 121.445 48.5714 121.52 48.5714C121.595 48.5714 121.67 48.5714 121.744 48.5714C121.819 48.5714 121.893 48.5714 121.968 48.5714C122.042 48.5714 122.117 48.5714 122.191 48.5714C122.265 48.5714 122.339 48.5714 122.413 48.5714C122.487 48.5714 122.561 48.5714 122.635 48.5714C122.708 48.5714 122.782 48.5714 122.856 48.5714C122.929 48.5714 123.003 48.5714 123.076 48.5714C123.149 48.5714 123.222 48.5714 123.296 48.5714C123.369 48.5714 123.442 48.5714 123.514 48.5714C123.587 48.5714 123.66 48.5714 123.733 48.5714C123.805 48.5714 123.878 48.5714 123.95 48.5714C124.022 48.5714 124.095 48.5714 124.167 48.5714C124.239 48.5714 124.311 48.5714 124.383 48.5714C124.455 48.5714 124.527 48.5714 124.598 48.5714C124.67 48.5714 124.741 48.5714 124.813 48.5714C124.884 48.5714 124.956 48.5714 125.027 48.5714C125.098 48.5714 125.169 48.5714 125.24 48.5714C125.311 48.5714 125.382 48.5714 125.452 48.5714C125.523 48.5714 125.594 48.5714 125.664 48.5714C125.735 48.5714 125.805 48.5714 125.875 48.5714C125.945 48.5714 126.015 48.5714 126.085 48.5714C126.155 48.5714 126.225 48.5714 126.295 48.5714C126.365 48.5714 126.434 48.5714 126.504 48.5714C126.573 48.5714 126.642 48.5714 126.712 48.5714C126.781 48.5714 126.85 48.5714 126.919 48.5714C126.988 48.5714 127.057 48.5714 127.125 48.5714C127.194 48.5714 127.263 48.5714 127.331 48.5714C127.399 48.5714 127.468 48.5714 127.536 48.5714C127.604 48.5714 127.672 48.5714 127.74 48.5714C127.808 48.5714 127.876 48.5714 127.944 48.5714C128.011 48.5714 128.079 48.5714 128.146 48.5714C128.214 48.5714 128.281 48.5714 128.348 48.5714C128.415 48.5714 128.482 48.5714 128.549 48.5714C128.616 48.5714 128.683 48.5714 128.749 48.5714C128.816 48.5714 128.882 48.5714 128.949 48.5714C129.015 48.5714 129.081 48.5714 129.147 48.5714C129.213 48.5714 129.279 48.5714 129.345 48.5714C129.411 48.5714 129.477 48.5714 129.542 48.5714C129.608 48.5714 129.673 48.5714 129.738 48.5714C129.804 48.5714 129.869 48.5714 129.934 48.5714C129.999 48.5714 130.064 48.5714 130.128 48.5714C130.193 48.5714 130.258 48.5714 130.322 48.5714C130.387 48.5714 130.451 48.5714 130.515 48.5714C130.579 48.5714 130.643 48.5714 130.707 48.5714C130.771 48.5714 130.835 48.5714 130.899 48.5714C130.962 48.5714 131.026 48.5714 131.089 48.5714C131.152 48.5714 131.216 48.5714 131.279 48.5714C131.342 48.5714 131.405 48.5714 131.467 48.5714C131.53 48.5714 131.593 48.5714 131.655 48.5714C131.718 48.5714 131.78 48.5714 131.842 48.5714C131.904 48.5714 131.967 48.5714 132.028 48.5714C132.09 48.5714 132.152 48.5714 132.214 48.5714C132.275 48.5714 132.337 48.5714 132.398 48.5714C132.46 48.5714 132.521 48.5714 132.582 48.5714C132.643 48.5714 132.704 48.5714 132.764 48.5714C132.825 48.5714 132.886 48.5714 132.946 48.5714C133.007 48.5714 133.067 48.5714 133.127 48.5714C133.187 48.5714 133.247 48.5714 133.307 48.5714C133.367 48.5714 133.427 48.5714 133.486 48.5714C133.546 48.5714 133.605 48.5714 133.665 48.5714C133.724 48.5714 133.783 48.5714 133.842 48.5714C133.901 48.5714 133.96 48.5714 134.018 48.5714C134.077 48.5714 134.136 48.5714 134.194 48.5714C134.252 48.5714 134.311 48.5714 134.369 48.5714C134.427 48.5714 134.485 48.5714 134.542 48.5714C134.6 48.5714 134.658 48.5714 134.715 48.5714C134.773 48.5714 134.83 48.5714 134.887 48.5714C134.944 48.5714 135.001 48.5714 135.058 48.5714C135.115 48.5714 135.171 48.5714 135.228 48.5714C135.285 48.5714 135.341 48.5714 135.397 48.5714C135.453 48.5714 135.509 48.5714 135.565 48.5714C135.621 48.5714 135.677 48.5714 135.732 48.5714C135.788 48.5714 135.843 48.5714 135.899 48.5714C135.954 48.5714 136.009 48.5714 136.064 48.5714C136.119 48.5714 136.174 48.5714 136.228 48.5714C136.283 48.5714 136.337 48.5714 136.392 48.5714C136.446 48.5714 136.5 48.5714 136.554 48.5714C136.608 48.5714 136.662 48.5714 136.716 48.5714C136.769 48.5714 136.823 48.5714 136.876 48.5714C136.93 48.5714 136.983 48.5714 137.036 48.5714C137.089 48.5714 137.142 48.5714 137.194 48.5714C137.247 48.5714 137.299 48.5714 137.352 48.5714C137.404 48.5714 137.456 48.5714 137.508 48.5714C137.56 48.5714 137.612 48.5714 137.664 48.5714C137.716 48.5714 137.767 48.5714 137.819 48.5714C137.87 48.5714 137.921 48.5714 137.972 48.5714C138.023 48.5714 138.074 48.5714 138.125 48.5714C138.175 48.5714 138.226 48.5714 138.276 48.5714C138.327 48.5714 138.377 48.5714 138.427 48.5714C138.477 48.5714 138.527 48.5714 138.576 48.5714C138.626 48.5714 138.676 48.5714 138.725 48.5714C138.774 48.5714 138.824 48.5714 138.873 48.5714C138.922 48.5714 138.97 48.5714 139.019 48.5714C139.068 48.5714 139.116 48.5714 139.165 48.5714C139.213 48.5714 139.261 48.5714 139.309 48.5714C139.357 48.5714 139.405 48.5714 139.452 48.5714C139.5 48.5714 139.547 48.5714 139.595 48.5714C139.642 48.5714 139.689 48.5714 139.736 48.5714C139.783 48.5714 139.83 48.5714 139.876 48.5714C139.923 48.5714 139.969 48.5714 140.016 48.5714C140.062 48.5714 140.108 48.5714 140.154 48.5714C140.2 48.5714 140.245 48.5714 140.291 48.5714C140.336 48.5714 140.382 48.5714 140.427 48.5714C140.472 48.5714 140.517 48.5714 140.562 48.5714C140.607 48.5714 140.651 48.5714 140.696 48.5714C140.74 48.5714 140.784 48.5714 140.828 48.5714C140.873 48.5714 140.916 48.5714 140.96 48.5714C141.004 48.5714 141.047 48.5714 141.091 48.5714C141.134 48.5714 141.177 48.5714 141.22 48.5714C141.263 48.5714 141.306 48.5714 141.349 48.5714C141.391 48.5714 141.434 48.5714 141.476 48.5714C141.518 48.5714 141.561 48.5714 141.602 48.5714C141.644 48.5714 141.686 48.5714 141.728 48.5714C141.769 48.5714 141.811 48.5714 141.852 48.5714C141.893 48.5714 141.934 48.5714 141.975 48.5714C142.015 48.5714 142.056 48.5714 142.096 48.5714C142.137 48.5714 142.177 48.5714 142.217 48.5714C142.257 48.5714 142.297 48.5714 142.337 48.5714C142.376 48.5714 142.416 48.5714 142.455 48.5714C142.494 48.5714 142.534 48.5714 142.573 48.5714C142.611 48.5714 142.65 48.5714 142.689 48.5714C142.727 48.5714 142.766 48.5714 142.804 48.5714C142.842 48.5714 142.88 48.5714 142.918 48.5714C142.955 48.5714 142.993 48.5714 143.03 48.5714C143.068 48.5714 143.105 48.5714 143.142 48.5714C143.179 48.5714 143.216 48.5714 143.252 48.5714C143.289 48.5714 143.325 48.5714 143.362 48.5714C143.398 48.5714 143.434 48.5714 143.47 48.5714C143.506 48.5714 143.541 48.5714 143.577 48.5714C143.612 48.5714 143.648 48.5714 143.683 48.5714C143.718 48.5714 143.753 48.5714 143.787 48.5714C143.822 48.5714 143.856 48.5714 143.891 48.5714C143.925 48.5714 143.959 48.5714 143.993 48.5714C144.027 48.5714 144.06 48.5714 144.094 48.5714C144.127 48.5714 144.161 48.5714 144.194 48.5714C144.227 48.5714 144.26 48.5714 144.292 48.5714C144.325 48.5714 144.358 48.5714 144.39 48.5714C144.422 48.5714 144.454 48.5714 144.486 48.5714C144.518 48.5714 144.55 48.5714 144.581 48.5714C144.613 48.5714 144.644 48.5714 144.675 48.5714C144.706 48.5714 144.737 48.5714 144.768 48.5714C144.798 48.5714 144.829 48.5714 144.859 48.5714C144.889 48.5714 144.919 48.5714 144.949 48.5714C144.979 48.5714 145.009 48.5714 145.038 48.5714C145.068 48.5714 145.097 48.5714 145.126 48.5714C145.155 48.5714 145.184 48.5714 145.213 48.5714C145.241 48.5714 145.27 48.5714 145.298 48.5714C145.326 48.5714 145.354 48.5714 145.382 48.5714C145.41 48.5714 145.437 48.5714 145.465 48.5714C145.492 48.5714 145.519 48.5714 145.546 48.5714C145.573 48.5714 145.6 48.5714 145.626 48.5714C145.653 48.5714 145.679 48.5714 145.705 48.5714C145.731 48.5714 145.757 48.5714 145.783 48.5714C145.809 48.5714 145.834 48.5714 145.86 48.5714C145.885 48.5714 145.91 48.5714 145.935 48.5714C145.96 48.5714 145.984 48.5714 146.009 48.5714C146.033 48.5714 146.057 48.5714 146.081 48.5714C146.105 48.5714 146.129 48.5714 146.153 48.5714C146.176 48.5714 146.2 48.5714 146.223 48.5714C146.246 48.5714 146.269 48.5714 146.292 48.5714C146.314 48.5714 146.337 48.5714 146.359 48.5714C146.381 48.5714 146.403 48.5714 146.425 48.5714C146.447 48.5714 146.469 48.5714 146.49 48.5714C146.512 48.5714 146.533 48.5714 146.554 48.5714C146.575 48.5714 146.596 48.5714 146.616 48.5714C146.637 48.5714 146.657 48.5714 146.677 48.5714C146.697 48.5714 146.717 48.5714 146.737 48.5714C146.756 48.5714 146.776 48.5714 146.795 48.5714C146.814 48.5714 146.833 48.5714 146.852 48.5714C146.871 48.5714 146.889 48.5714 146.908 48.5714C146.926 48.5714 146.944 48.5714 146.962 48.5714C146.98 48.5714 146.998 48.5714 147.015 48.5714C147.033 48.5714 147.05 48.5714 147.067 48.5714C147.084 48.5714 147.101 48.5714 147.117 48.5714C147.134 48.5714 147.15 48.5714 147.166 48.5714C147.182 48.5714 147.198 48.5714 147.214 48.5714C147.229 48.5714 147.245 48.5714 147.26 48.5714C147.275 48.5714 147.29 48.5714 147.305 48.5714C147.32 48.5714 147.334 48.5714 147.348 48.5714C147.363 48.5714 147.377 48.5714 147.391 48.5714C147.404 48.5714 147.418 48.5714 147.431 48.5714C147.445 48.5714 147.458 48.5714 147.471 48.5714C147.484 48.5714 147.496 48.5714 147.509 48.5714C147.521 48.5714 147.533 48.5714 147.545 48.5714C147.557 48.5714 147.569 48.5714 147.581 48.5714C147.592 48.5714 147.603 48.5714 147.615 48.5714C147.626 48.5714 147.636 48.5714 147.647 48.5714C147.658 48.5714 147.668 48.5714 147.678 48.5714C147.688 48.5714 147.698 48.5714 147.708 48.5714C147.717 48.5714 147.727 48.5714 147.736 48.5714C147.745 48.5714 147.754 48.5714 147.763 48.5714C147.772 48.5714 147.78 48.5714 147.788 48.5714C147.797 48.5714 147.805 48.5714 147.812 48.5714C147.82 48.5714 147.828 48.5714 147.835 48.5714C147.842 48.5714 147.849 48.5714 147.856 48.5714C147.863 48.5714 147.869 48.5714 147.876 48.5714C147.882 48.5714 147.888 48.5714 147.894 48.5714C147.9 48.5714 147.905 48.5714 147.911 48.5714C147.916 48.5714 147.921 48.5714 147.926 48.5714C147.931 48.5714 147.936 48.5714 147.94 48.5714C147.945 48.5714 147.949 48.5714 147.953 48.5714C147.957 48.5714 147.96 48.5714 147.964 48.5714C147.967 48.5714 147.97 48.5714 147.973 48.5714C147.976 48.5714 147.979 48.5714 147.981 48.5714C147.984 48.5714 147.986 48.5714 147.988 48.5714C147.99 48.5714 147.992 48.5714 147.993 48.5714C147.995 48.5714 147.996 48.5714 147.997 48.5714C147.998 48.5714 147.999 48.5714 147.999 48.5714C148 48.5714 148 48.5714 148 38.5714Z" fill="#C7C7C7" mask="url(#path-3-outside-1_411_21)"/>
</svg>
