<svg width="14" height="16" viewBox="0 0 14 16" fill="none" xmlns="http://www.w3.org/2000/svg">
<path d="M8.66901 15.719C8.03251 15.719 7.38701 15.65 6.80301 15.52C5.80651 15.298 3.71001 13.6985 3.26651 13.239C2.86551 12.8235 1.79151 11.2285 1.63401 9.93104C1.56501 9.36604 1.99851 7.68254 2.52901 7.08354C2.63351 6.96604 2.74301 6.88704 2.85501 6.84804C2.83248 6.79658 2.80964 6.74524 2.78651 6.69405C2.44151 5.94305 1.93051 5.07554 1.47951 4.30954C0.716008 3.01254 0.431508 2.49454 0.479508 2.19954C0.560008 1.69954 0.970008 1.12254 1.51601 1.02154L1.61251 1.00204C1.75327 0.968114 1.89725 0.949341 2.04201 0.946045C2.51851 0.946045 2.95501 1.21804 3.41651 1.80154C3.81601 2.30704 4.46301 3.70254 5.00751 4.96504C4.98251 4.64704 4.99201 4.38154 5.05901 4.22654C5.32901 3.60004 6.08201 3.35354 6.31151 3.33905L6.36801 3.33754C6.51351 3.33754 7.25801 3.37404 7.60301 4.09804C7.65801 4.21404 7.71051 4.33904 7.75901 4.46554C7.82101 4.25054 7.90901 4.06304 8.03451 3.95604C8.42051 3.62804 8.94901 3.45804 9.30851 3.55904C9.69501 3.66754 10.0205 4.07654 10.138 4.60304C10.1885 4.48904 10.2495 4.39654 10.3215 4.34254C10.671 4.08054 11.279 4.05254 11.664 4.31954C12.134 4.64554 13.215 6.59855 13.405 8.30655C13.5605 9.71055 13.736 12.2195 13.1565 13.2535C12.5545 14.326 11.323 15.159 10.4335 15.4785C10.0005 15.633 9.37401 15.719 8.66901 15.719ZM3.03401 7.32905C2.70201 7.36205 2.05151 9.22204 2.13001 9.86954C2.27101 11.0335 3.27051 12.5225 3.62651 12.8915C4.05001 13.3305 6.05501 14.8405 6.91101 15.031C7.46051 15.1535 8.06751 15.2185 8.66851 15.2185C9.30801 15.2185 9.88901 15.141 10.263 15.006C10.9355 14.7645 12.1435 14.033 12.719 13.0065C13.093 12.341 13.1615 10.647 12.907 8.36055C12.7265 6.73155 11.673 4.93355 11.3785 4.72855C11.142 4.56505 10.748 4.64505 10.6205 4.74104C10.55 4.82154 10.4455 5.29254 10.405 5.74104L10.2795 7.12455L9.91501 5.78405C9.91501 5.78405 9.75301 5.18904 9.65101 4.71754C9.56401 4.31904 9.34201 4.08604 9.17251 4.03904C8.98601 3.98604 8.61151 4.11954 8.35801 4.33554C8.22001 4.45304 8.11751 5.13204 8.11301 5.66704L8.09401 7.74554L7.61951 5.72155C7.61751 5.71255 7.41901 4.87004 7.15151 4.31154C6.93551 3.85854 6.46051 3.83554 6.36801 3.83554C6.22251 3.84554 5.69001 4.02455 5.51801 4.42305C5.39801 4.70255 5.67001 6.16104 5.99051 7.35154L5.51651 7.50754C5.50001 7.46404 3.75751 3.03655 3.02501 2.11004C2.55401 1.51404 2.23901 1.44504 2.04301 1.44504C1.93301 1.44504 1.82701 1.46704 1.71551 1.49054L1.60801 1.51204C1.32701 1.56404 1.03151 1.92254 0.973009 2.27904C0.977509 2.47004 1.49501 3.34904 1.91101 4.05554C2.36751 4.83154 2.88551 5.71104 3.24101 6.48454C3.33151 6.68104 3.41551 6.88554 3.49301 7.09454L3.49401 7.09804C4.03651 7.84554 4.30651 10.304 4.33601 10.5865L3.83951 10.644C3.83751 10.6265 3.60851 8.87554 3.05351 7.34754C3.04744 7.34094 3.04092 7.33476 3.03401 7.32905Z" fill="white"/>
</svg>
